<?xml version="1.0" encoding="UTF-8" standalone="no"?>
<!DOCTYPE svg PUBLIC "-//W3C//DTD SVG 1.1//EN"
 "http://www.w3.org/Graphics/SVG/1.1/DTD/svg11.dtd">
<!-- Generated by graphviz version 2.42.3 (20191010.1750)
 -->
<!-- Title: snakemake_dag Pages: 1 -->
<svg width="2869pt" height="1204pt"
 viewBox="0.00 0.00 2868.50 1204.00" xmlns="http://www.w3.org/2000/svg" xmlns:xlink="http://www.w3.org/1999/xlink">
<g id="graph0" class="graph" transform="scale(1 1) rotate(0) translate(4 1200)">
<title>snakemake_dag</title>
<polygon fill="white" stroke="transparent" points="-4,4 -4,-1200 2864.5,-1200 2864.5,4 -4,4"/>
<!-- 0 -->
<g id="node1" class="node">
<title>0</title>
<path fill="none" stroke="#9fd856" stroke-width="2" stroke-dasharray="5,2" d="M1319,-36C1319,-36 1289,-36 1289,-36 1283,-36 1277,-30 1277,-24 1277,-24 1277,-12 1277,-12 1277,-6 1283,0 1289,0 1289,0 1319,0 1319,0 1325,0 1331,-6 1331,-12 1331,-12 1331,-24 1331,-24 1331,-30 1325,-36 1319,-36"/>
<text text-anchor="middle" x="1304" y="-15.5" font-family="sans" font-size="10.00">all</text>
</g>
<!-- 1 -->
<g id="node2" class="node">
<title>1</title>
<path fill="none" stroke="#56c9d8" stroke-width="2" stroke-dasharray="5,2" d="M66,-118.5C66,-118.5 12,-118.5 12,-118.5 6,-118.5 0,-112.5 0,-106.5 0,-106.5 0,-89.5 0,-89.5 0,-83.5 6,-77.5 12,-77.5 12,-77.5 66,-77.5 66,-77.5 72,-77.5 78,-83.5 78,-89.5 78,-89.5 78,-106.5 78,-106.5 78,-112.5 72,-118.5 66,-118.5"/>
<text text-anchor="middle" x="39" y="-106.5" font-family="sans" font-size="10.00">fastp</text>
<text text-anchor="middle" x="39" y="-95.5" font-family="sans" font-size="10.00">insert: 0014</text>
<text text-anchor="middle" x="39" y="-84.5" font-family="sans" font-size="10.00">sample: Mhap</text>
</g>
<!-- 1&#45;&gt;0 -->
<g id="edge1" class="edge">
<title>1&#45;&gt;0</title>
<path fill="none" stroke="grey" stroke-width="2" d="M72.07,-77.44C76.95,-75.25 82.01,-73.34 87,-72 203.22,-40.85 1074.54,-23.2 1266.61,-19.66"/>
<polygon fill="grey" stroke="grey" stroke-width="2" points="1266.83,-23.16 1276.77,-19.48 1266.71,-16.16 1266.83,-23.16"/>
</g>
<!-- 2 -->
<g id="node3" class="node">
<title>2</title>
<path fill="none" stroke="#56c9d8" stroke-width="2" stroke-dasharray="5,2" d="M162,-118.5C162,-118.5 108,-118.5 108,-118.5 102,-118.5 96,-112.5 96,-106.5 96,-106.5 96,-89.5 96,-89.5 96,-83.5 102,-77.5 108,-77.5 108,-77.5 162,-77.5 162,-77.5 168,-77.5 174,-83.5 174,-89.5 174,-89.5 174,-106.5 174,-106.5 174,-112.5 168,-118.5 162,-118.5"/>
<text text-anchor="middle" x="135" y="-106.5" font-family="sans" font-size="10.00">fastp</text>
<text text-anchor="middle" x="135" y="-95.5" font-family="sans" font-size="10.00">insert: 0058</text>
<text text-anchor="middle" x="135" y="-84.5" font-family="sans" font-size="10.00">sample: Mhap</text>
</g>
<!-- 2&#45;&gt;0 -->
<g id="edge2" class="edge">
<title>2&#45;&gt;0</title>
<path fill="none" stroke="grey" stroke-width="2" d="M168.08,-77.46C172.95,-75.27 178.01,-73.35 183,-72 394.08,-15.01 1096.67,-17.21 1266.71,-18.62"/>
<polygon fill="grey" stroke="grey" stroke-width="2" points="1266.87,-22.12 1276.9,-18.71 1266.93,-15.12 1266.87,-22.12"/>
</g>
<!-- 3 -->
<g id="node4" class="node">
<title>3</title>
<path fill="none" stroke="#56d8b1" stroke-width="2" stroke-dasharray="5,2" d="M258,-124C258,-124 204,-124 204,-124 198,-124 192,-118 192,-112 192,-112 192,-84 192,-84 192,-78 198,-72 204,-72 204,-72 258,-72 258,-72 264,-72 270,-78 270,-84 270,-84 270,-112 270,-112 270,-118 264,-124 258,-124"/>
<text text-anchor="middle" x="231" y="-112" font-family="sans" font-size="10.00">fastqc</text>
<text text-anchor="middle" x="231" y="-101" font-family="sans" font-size="10.00">R: R1</text>
<text text-anchor="middle" x="231" y="-90" font-family="sans" font-size="10.00">insert: 0014</text>
<text text-anchor="middle" x="231" y="-79" font-family="sans" font-size="10.00">sample: Mhap</text>
</g>
<!-- 3&#45;&gt;0 -->
<g id="edge3" class="edge">
<title>3&#45;&gt;0</title>
<path fill="none" stroke="grey" stroke-width="2" d="M270,-74.99C272.99,-73.84 276.01,-72.81 279,-72 470.59,-19.82 1105.51,-18.32 1266.59,-18.81"/>
<polygon fill="grey" stroke="grey" stroke-width="2" points="1266.92,-22.31 1276.93,-18.85 1266.94,-15.31 1266.92,-22.31"/>
</g>
<!-- 4 -->
<g id="node5" class="node">
<title>4</title>
<path fill="none" stroke="#56d8b1" stroke-width="2" stroke-dasharray="5,2" d="M354,-124C354,-124 300,-124 300,-124 294,-124 288,-118 288,-112 288,-112 288,-84 288,-84 288,-78 294,-72 300,-72 300,-72 354,-72 354,-72 360,-72 366,-78 366,-84 366,-84 366,-112 366,-112 366,-118 360,-124 354,-124"/>
<text text-anchor="middle" x="327" y="-112" font-family="sans" font-size="10.00">fastqc</text>
<text text-anchor="middle" x="327" y="-101" font-family="sans" font-size="10.00">R: R2</text>
<text text-anchor="middle" x="327" y="-90" font-family="sans" font-size="10.00">insert: 0014</text>
<text text-anchor="middle" x="327" y="-79" font-family="sans" font-size="10.00">sample: Mhap</text>
</g>
<!-- 4&#45;&gt;0 -->
<g id="edge4" class="edge">
<title>4&#45;&gt;0</title>
<path fill="none" stroke="grey" stroke-width="2" d="M366.01,-75.01C368.99,-73.85 372.01,-72.82 375,-72 547.26,-24.59 1115.39,-19.54 1266.7,-19.04"/>
<polygon fill="grey" stroke="grey" stroke-width="2" points="1266.87,-22.54 1276.86,-19.02 1266.85,-15.54 1266.87,-22.54"/>
</g>
<!-- 5 -->
<g id="node6" class="node">
<title>5</title>
<path fill="none" stroke="#56d8b1" stroke-width="2" stroke-dasharray="5,2" d="M450,-124C450,-124 396,-124 396,-124 390,-124 384,-118 384,-112 384,-112 384,-84 384,-84 384,-78 390,-72 396,-72 396,-72 450,-72 450,-72 456,-72 462,-78 462,-84 462,-84 462,-112 462,-112 462,-118 456,-124 450,-124"/>
<text text-anchor="middle" x="423" y="-112" font-family="sans" font-size="10.00">fastqc</text>
<text text-anchor="middle" x="423" y="-101" font-family="sans" font-size="10.00">R: R1</text>
<text text-anchor="middle" x="423" y="-90" font-family="sans" font-size="10.00">insert: 0058</text>
<text text-anchor="middle" x="423" y="-79" font-family="sans" font-size="10.00">sample: Mhap</text>
</g>
<!-- 5&#45;&gt;0 -->
<g id="edge5" class="edge">
<title>5&#45;&gt;0</title>
<path fill="none" stroke="grey" stroke-width="2" d="M462.01,-75.03C465,-73.87 468.01,-72.83 471,-72 623.88,-29.38 1124.99,-20.89 1266.49,-19.33"/>
<polygon fill="grey" stroke="grey" stroke-width="2" points="1266.84,-22.83 1276.8,-19.22 1266.77,-15.83 1266.84,-22.83"/>
</g>
<!-- 6 -->
<g id="node7" class="node">
<title>6</title>
<path fill="none" stroke="#56d8b1" stroke-width="2" stroke-dasharray="5,2" d="M546,-124C546,-124 492,-124 492,-124 486,-124 480,-118 480,-112 480,-112 480,-84 480,-84 480,-78 486,-72 492,-72 492,-72 546,-72 546,-72 552,-72 558,-78 558,-84 558,-84 558,-112 558,-112 558,-118 552,-124 546,-124"/>
<text text-anchor="middle" x="519" y="-112" font-family="sans" font-size="10.00">fastqc</text>
<text text-anchor="middle" x="519" y="-101" font-family="sans" font-size="10.00">R: R2</text>
<text text-anchor="middle" x="519" y="-90" font-family="sans" font-size="10.00">insert: 0058</text>
<text text-anchor="middle" x="519" y="-79" font-family="sans" font-size="10.00">sample: Mhap</text>
</g>
<!-- 6&#45;&gt;0 -->
<g id="edge6" class="edge">
<title>6&#45;&gt;0</title>
<path fill="none" stroke="grey" stroke-width="2" d="M558.05,-76.64C562.66,-74.82 567.37,-73.21 572,-72 705.36,-37.02 1136.37,-23.31 1266.47,-19.9"/>
<polygon fill="grey" stroke="grey" stroke-width="2" points="1266.81,-23.39 1276.72,-19.64 1266.63,-16.4 1266.81,-23.39"/>
</g>
<!-- 7 -->
<g id="node8" class="node">
<title>7</title>
<path fill="none" stroke="#56d892" stroke-width="2" stroke-dasharray="5,2" d="M685,-1108C685,-1108 631,-1108 631,-1108 625,-1108 619,-1102 619,-1096 619,-1096 619,-1068 619,-1068 619,-1062 625,-1056 631,-1056 631,-1056 685,-1056 685,-1056 691,-1056 697,-1062 697,-1068 697,-1068 697,-1096 697,-1096 697,-1102 691,-1108 685,-1108"/>
<text text-anchor="middle" x="658" y="-1096" font-family="sans" font-size="10.00">trimmomatic</text>
<text text-anchor="middle" x="658" y="-1085" font-family="sans" font-size="10.00">insert: 0014</text>
<text text-anchor="middle" x="658" y="-1074" font-family="sans" font-size="10.00">sample: Mhap</text>
<text text-anchor="middle" x="658" y="-1063" font-family="sans" font-size="10.00">trimbin: 1P</text>
</g>
<!-- 7&#45;&gt;0 -->
<g id="edge7" class="edge">
<title>7&#45;&gt;0</title>
<path fill="none" stroke="grey" stroke-width="2" d="M658.55,-1055.69C659.64,-1002.81 662,-876.76 662,-771 662,-771 662,-771 662,-185 662,-133.66 647.52,-105.99 686,-72 729.62,-33.47 1140.24,-22.22 1266.95,-19.65"/>
<polygon fill="grey" stroke="grey" stroke-width="2" points="1267.02,-23.15 1276.95,-19.46 1266.88,-16.15 1267.02,-23.15"/>
</g>
<!-- 15 -->
<g id="node16" class="node">
<title>15</title>
<path fill="none" stroke="#56d8c1" stroke-width="2" stroke-dasharray="5,2" d="M622,-860C622,-860 562,-860 562,-860 556,-860 550,-854 550,-848 550,-848 550,-836 550,-836 550,-830 556,-824 562,-824 562,-824 622,-824 622,-824 628,-824 634,-830 634,-836 634,-836 634,-848 634,-848 634,-854 628,-860 622,-860"/>
<text text-anchor="middle" x="592" y="-839.5" font-family="sans" font-size="10.00">trimmed_fastqc</text>
</g>
<!-- 7&#45;&gt;15 -->
<g id="edge47" class="edge">
<title>7&#45;&gt;15</title>
<path fill="none" stroke="grey" stroke-width="2" d="M651.06,-1055.98C638.54,-1010.82 612.27,-916.09 599.41,-869.72"/>
<polygon fill="grey" stroke="grey" stroke-width="2" points="602.78,-868.77 596.73,-860.07 596.03,-870.64 602.78,-868.77"/>
</g>
<!-- 23 -->
<g id="node24" class="node">
<title>23</title>
<path fill="none" stroke="#56d85b" stroke-width="2" stroke-dasharray="5,2" d="M579.5,-1012C579.5,-1012 526.5,-1012 526.5,-1012 520.5,-1012 514.5,-1006 514.5,-1000 514.5,-1000 514.5,-988 514.5,-988 514.5,-982 520.5,-976 526.5,-976 526.5,-976 579.5,-976 579.5,-976 585.5,-976 591.5,-982 591.5,-988 591.5,-988 591.5,-1000 591.5,-1000 591.5,-1006 585.5,-1012 579.5,-1012"/>
<text text-anchor="middle" x="553" y="-997" font-family="sans" font-size="10.00">concatenation</text>
<text text-anchor="middle" x="553" y="-986" font-family="sans" font-size="10.00">FR: 1</text>
</g>
<!-- 7&#45;&gt;23 -->
<g id="edge55" class="edge">
<title>7&#45;&gt;23</title>
<path fill="none" stroke="grey" stroke-width="2" d="M627.35,-1055.89C612.98,-1044.12 595.95,-1030.18 581.82,-1018.6"/>
<polygon fill="grey" stroke="grey" stroke-width="2" points="583.83,-1015.72 573.87,-1012.1 579.39,-1021.14 583.83,-1015.72"/>
</g>
<!-- 29 -->
<g id="node30" class="node">
<title>29</title>
<path fill="none" stroke="#61d856" stroke-width="2" stroke-dasharray="5,2" d="M1263.5,-1012C1263.5,-1012 1222.5,-1012 1222.5,-1012 1216.5,-1012 1210.5,-1006 1210.5,-1000 1210.5,-1000 1210.5,-988 1210.5,-988 1210.5,-982 1216.5,-976 1222.5,-976 1222.5,-976 1263.5,-976 1263.5,-976 1269.5,-976 1275.5,-982 1275.5,-988 1275.5,-988 1275.5,-1000 1275.5,-1000 1275.5,-1006 1269.5,-1012 1263.5,-1012"/>
<text text-anchor="middle" x="1243" y="-997" font-family="sans" font-size="10.00">spades</text>
<text text-anchor="middle" x="1243" y="-986" font-family="sans" font-size="10.00">large: 0014</text>
</g>
<!-- 7&#45;&gt;29 -->
<g id="edge65" class="edge">
<title>7&#45;&gt;29</title>
<path fill="none" stroke="grey" stroke-width="2" d="M697.29,-1075.22C802.64,-1059.74 1090.81,-1017.37 1200.15,-1001.3"/>
<polygon fill="grey" stroke="grey" stroke-width="2" points="1200.78,-1004.74 1210.16,-999.83 1199.76,-997.82 1200.78,-1004.74"/>
</g>
<!-- 31 -->
<g id="node32" class="node">
<title>31</title>
<path fill="none" stroke="#d8bc56" stroke-width="2" stroke-dasharray="5,2" d="M1277.5,-932C1277.5,-932 1208.5,-932 1208.5,-932 1202.5,-932 1196.5,-926 1196.5,-920 1196.5,-920 1196.5,-908 1196.5,-908 1196.5,-902 1202.5,-896 1208.5,-896 1208.5,-896 1277.5,-896 1277.5,-896 1283.5,-896 1289.5,-902 1289.5,-908 1289.5,-908 1289.5,-920 1289.5,-920 1289.5,-926 1283.5,-932 1277.5,-932"/>
<text text-anchor="middle" x="1243" y="-911.5" font-family="sans" font-size="10.00">bwa_mem_paired</text>
</g>
<!-- 7&#45;&gt;31 -->
<g id="edge70" class="edge">
<title>7&#45;&gt;31</title>
<path fill="none" stroke="grey" stroke-width="2" d="M697.29,-1069.85C798.48,-1041.14 1068.32,-964.57 1186.38,-931.07"/>
<polygon fill="grey" stroke="grey" stroke-width="2" points="1187.64,-934.35 1196.3,-928.25 1185.73,-927.61 1187.64,-934.35"/>
</g>
<!-- 8 -->
<g id="node9" class="node">
<title>8</title>
<path fill="none" stroke="#56d892" stroke-width="2" stroke-dasharray="5,2" d="M1597,-1108C1597,-1108 1543,-1108 1543,-1108 1537,-1108 1531,-1102 1531,-1096 1531,-1096 1531,-1068 1531,-1068 1531,-1062 1537,-1056 1543,-1056 1543,-1056 1597,-1056 1597,-1056 1603,-1056 1609,-1062 1609,-1068 1609,-1068 1609,-1096 1609,-1096 1609,-1102 1603,-1108 1597,-1108"/>
<text text-anchor="middle" x="1570" y="-1096" font-family="sans" font-size="10.00">trimmomatic</text>
<text text-anchor="middle" x="1570" y="-1085" font-family="sans" font-size="10.00">insert: 0014</text>
<text text-anchor="middle" x="1570" y="-1074" font-family="sans" font-size="10.00">sample: Mhap</text>
<text text-anchor="middle" x="1570" y="-1063" font-family="sans" font-size="10.00">trimbin: 2P</text>
</g>
<!-- 8&#45;&gt;0 -->
<g id="edge8" class="edge">
<title>8&#45;&gt;0</title>
<path fill="none" stroke="grey" stroke-width="2" d="M1570,-1055.97C1570,-1023.48 1570,-965 1570,-915 1570,-915 1570,-915 1570,-841 1570,-641.6 1698,-610.4 1698,-411 1698,-411 1698,-411 1698,-185 1698,-31.02 1439.29,-17.59 1341.15,-18.03"/>
<polygon fill="grey" stroke="grey" stroke-width="2" points="1341.05,-14.53 1331.08,-18.13 1341.11,-21.53 1341.05,-14.53"/>
</g>
<!-- 16 -->
<g id="node17" class="node">
<title>16</title>
<path fill="none" stroke="#56d8c1" stroke-width="2" stroke-dasharray="5,2" d="M1670,-788C1670,-788 1610,-788 1610,-788 1604,-788 1598,-782 1598,-776 1598,-776 1598,-764 1598,-764 1598,-758 1604,-752 1610,-752 1610,-752 1670,-752 1670,-752 1676,-752 1682,-758 1682,-764 1682,-764 1682,-776 1682,-776 1682,-782 1676,-788 1670,-788"/>
<text text-anchor="middle" x="1640" y="-767.5" font-family="sans" font-size="10.00">trimmed_fastqc</text>
</g>
<!-- 8&#45;&gt;16 -->
<g id="edge48" class="edge">
<title>8&#45;&gt;16</title>
<path fill="none" stroke="grey" stroke-width="2" d="M1575.81,-1055.78C1578.34,-1044.79 1581.33,-1031.76 1584,-1020 1602.31,-939.4 1623.67,-844.05 1633.91,-798.24"/>
<polygon fill="grey" stroke="grey" stroke-width="2" points="1637.39,-798.74 1636.16,-788.21 1630.56,-797.21 1637.39,-798.74"/>
</g>
<!-- 24 -->
<g id="node25" class="node">
<title>24</title>
<path fill="none" stroke="#56d85b" stroke-width="2" stroke-dasharray="5,2" d="M1707.5,-1012C1707.5,-1012 1654.5,-1012 1654.5,-1012 1648.5,-1012 1642.5,-1006 1642.5,-1000 1642.5,-1000 1642.5,-988 1642.5,-988 1642.5,-982 1648.5,-976 1654.5,-976 1654.5,-976 1707.5,-976 1707.5,-976 1713.5,-976 1719.5,-982 1719.5,-988 1719.5,-988 1719.5,-1000 1719.5,-1000 1719.5,-1006 1713.5,-1012 1707.5,-1012"/>
<text text-anchor="middle" x="1681" y="-997" font-family="sans" font-size="10.00">concatenation</text>
<text text-anchor="middle" x="1681" y="-986" font-family="sans" font-size="10.00">FR: 2</text>
</g>
<!-- 8&#45;&gt;24 -->
<g id="edge57" class="edge">
<title>8&#45;&gt;24</title>
<path fill="none" stroke="grey" stroke-width="2" d="M1602.4,-1055.89C1617.74,-1044.01 1635.93,-1029.92 1650.96,-1018.28"/>
<polygon fill="grey" stroke="grey" stroke-width="2" points="1653.17,-1020.99 1658.94,-1012.1 1648.89,-1015.45 1653.17,-1020.99"/>
</g>
<!-- 8&#45;&gt;29 -->
<g id="edge66" class="edge">
<title>8&#45;&gt;29</title>
<path fill="none" stroke="grey" stroke-width="2" d="M1530.88,-1070.71C1469.09,-1054.46 1349.37,-1022.98 1285.53,-1006.18"/>
<polygon fill="grey" stroke="grey" stroke-width="2" points="1286.34,-1002.78 1275.78,-1003.62 1284.56,-1009.55 1286.34,-1002.78"/>
</g>
<!-- 8&#45;&gt;31 -->
<g id="edge71" class="edge">
<title>8&#45;&gt;31</title>
<path fill="none" stroke="grey" stroke-width="2" d="M1530.88,-1061.14C1469.16,-1029.81 1349.64,-969.14 1285.74,-936.7"/>
<polygon fill="grey" stroke="grey" stroke-width="2" points="1287.23,-933.53 1276.73,-932.12 1284.06,-939.77 1287.23,-933.53"/>
</g>
<!-- 9 -->
<g id="node10" class="node">
<title>9</title>
<path fill="none" stroke="#56d892" stroke-width="2" stroke-dasharray="5,2" d="M780,-1196C780,-1196 726,-1196 726,-1196 720,-1196 714,-1190 714,-1184 714,-1184 714,-1156 714,-1156 714,-1150 720,-1144 726,-1144 726,-1144 780,-1144 780,-1144 786,-1144 792,-1150 792,-1156 792,-1156 792,-1184 792,-1184 792,-1190 786,-1196 780,-1196"/>
<text text-anchor="middle" x="753" y="-1184" font-family="sans" font-size="10.00">trimmomatic</text>
<text text-anchor="middle" x="753" y="-1173" font-family="sans" font-size="10.00">insert: 0014</text>
<text text-anchor="middle" x="753" y="-1162" font-family="sans" font-size="10.00">sample: Mhap</text>
<text text-anchor="middle" x="753" y="-1151" font-family="sans" font-size="10.00">trimbin: 1U</text>
</g>
<!-- 9&#45;&gt;0 -->
<g id="edge9" class="edge">
<title>9&#45;&gt;0</title>
<path fill="none" stroke="grey" stroke-width="2" d="M747.23,-1143.55C733.49,-1080.68 700,-912.85 700,-771 700,-771 700,-771 700,-185 700,-132.8 691.86,-105.37 732,-72 773.08,-37.84 1146.15,-23.73 1266.65,-20.04"/>
<polygon fill="grey" stroke="grey" stroke-width="2" points="1266.97,-23.53 1276.86,-19.74 1266.76,-16.54 1266.97,-23.53"/>
</g>
<!-- 17 -->
<g id="node18" class="node">
<title>17</title>
<path fill="none" stroke="#56d8c1" stroke-width="2" stroke-dasharray="5,2" d="M800,-860C800,-860 740,-860 740,-860 734,-860 728,-854 728,-848 728,-848 728,-836 728,-836 728,-830 734,-824 740,-824 740,-824 800,-824 800,-824 806,-824 812,-830 812,-836 812,-836 812,-848 812,-848 812,-854 806,-860 800,-860"/>
<text text-anchor="middle" x="770" y="-839.5" font-family="sans" font-size="10.00">trimmed_fastqc</text>
</g>
<!-- 9&#45;&gt;17 -->
<g id="edge49" class="edge">
<title>9&#45;&gt;17</title>
<path fill="none" stroke="grey" stroke-width="2" d="M754.31,-1143.96C757.43,-1084.04 765.32,-932.77 768.57,-870.47"/>
<polygon fill="grey" stroke="grey" stroke-width="2" points="772.08,-870.41 769.1,-860.25 765.08,-870.05 772.08,-870.41"/>
</g>
<!-- 9&#45;&gt;23 -->
<g id="edge56" class="edge">
<title>9&#45;&gt;23</title>
<path fill="none" stroke="grey" stroke-width="2" d="M713.99,-1160.27C682.67,-1151.56 639.23,-1135.42 610,-1108 584.79,-1084.35 569.04,-1047.09 560.64,-1021.88"/>
<polygon fill="grey" stroke="grey" stroke-width="2" points="563.94,-1020.7 557.58,-1012.22 557.26,-1022.81 563.94,-1020.7"/>
</g>
<!-- 49 -->
<g id="node50" class="node">
<title>49</title>
<path fill="none" stroke="#56d873" stroke-width="2" stroke-dasharray="5,2" d="M1267,-1100C1267,-1100 1219,-1100 1219,-1100 1213,-1100 1207,-1094 1207,-1088 1207,-1088 1207,-1076 1207,-1076 1207,-1070 1213,-1064 1219,-1064 1219,-1064 1267,-1064 1267,-1064 1273,-1064 1279,-1070 1279,-1076 1279,-1076 1279,-1088 1279,-1088 1279,-1094 1273,-1100 1267,-1100"/>
<text text-anchor="middle" x="1243" y="-1079.5" font-family="sans" font-size="10.00">cat_unpaired</text>
</g>
<!-- 9&#45;&gt;49 -->
<g id="edge95" class="edge">
<title>9&#45;&gt;49</title>
<path fill="none" stroke="grey" stroke-width="2" d="M792.27,-1162.11C881.89,-1146.38 1101.12,-1107.9 1196.92,-1091.09"/>
<polygon fill="grey" stroke="grey" stroke-width="2" points="1197.65,-1094.51 1206.89,-1089.34 1196.44,-1087.62 1197.65,-1094.51"/>
</g>
<!-- 10 -->
<g id="node11" class="node">
<title>10</title>
<path fill="none" stroke="#56d892" stroke-width="2" stroke-dasharray="5,2" d="M1748,-1196C1748,-1196 1694,-1196 1694,-1196 1688,-1196 1682,-1190 1682,-1184 1682,-1184 1682,-1156 1682,-1156 1682,-1150 1688,-1144 1694,-1144 1694,-1144 1748,-1144 1748,-1144 1754,-1144 1760,-1150 1760,-1156 1760,-1156 1760,-1184 1760,-1184 1760,-1190 1754,-1196 1748,-1196"/>
<text text-anchor="middle" x="1721" y="-1184" font-family="sans" font-size="10.00">trimmomatic</text>
<text text-anchor="middle" x="1721" y="-1173" font-family="sans" font-size="10.00">insert: 0014</text>
<text text-anchor="middle" x="1721" y="-1162" font-family="sans" font-size="10.00">sample: Mhap</text>
<text text-anchor="middle" x="1721" y="-1151" font-family="sans" font-size="10.00">trimbin: 2U</text>
</g>
<!-- 10&#45;&gt;0 -->
<g id="edge10" class="edge">
<title>10&#45;&gt;0</title>
<path fill="none" stroke="grey" stroke-width="2" d="M1727.4,-1143.83C1735.38,-1110.16 1748,-1048.5 1748,-995 1748,-995 1748,-995 1748,-625 1748,-584.55 1755.9,-574.89 1767,-536 1783.2,-479.22 1812,-470.05 1812,-411 1812,-411 1812,-411 1812,-185 1812,-131.57 1812.95,-105.09 1771,-72 1704.63,-19.65 1439.77,-17.32 1341.2,-18.34"/>
<polygon fill="grey" stroke="grey" stroke-width="2" points="1341.07,-14.84 1331.11,-18.46 1341.15,-21.84 1341.07,-14.84"/>
</g>
<!-- 18 -->
<g id="node19" class="node">
<title>18</title>
<path fill="none" stroke="#56d8c1" stroke-width="2" stroke-dasharray="5,2" d="M1848,-572C1848,-572 1788,-572 1788,-572 1782,-572 1776,-566 1776,-560 1776,-560 1776,-548 1776,-548 1776,-542 1782,-536 1788,-536 1788,-536 1848,-536 1848,-536 1854,-536 1860,-542 1860,-548 1860,-548 1860,-560 1860,-560 1860,-566 1854,-572 1848,-572"/>
<text text-anchor="middle" x="1818" y="-551.5" font-family="sans" font-size="10.00">trimmed_fastqc</text>
</g>
<!-- 10&#45;&gt;18 -->
<g id="edge50" class="edge">
<title>10&#45;&gt;18</title>
<path fill="none" stroke="grey" stroke-width="2" d="M1741.23,-1143.89C1765.22,-1111.5 1802,-1052.48 1802,-995 1802,-995 1802,-995 1802,-697 1802,-656.96 1808.36,-610.97 1813.06,-582.45"/>
<polygon fill="grey" stroke="grey" stroke-width="2" points="1816.54,-582.86 1814.76,-572.42 1809.64,-581.69 1816.54,-582.86"/>
</g>
<!-- 10&#45;&gt;24 -->
<g id="edge58" class="edge">
<title>10&#45;&gt;24</title>
<path fill="none" stroke="grey" stroke-width="2" d="M1715.18,-1143.7C1707.75,-1111.38 1694.94,-1055.66 1687.29,-1022.37"/>
<polygon fill="grey" stroke="grey" stroke-width="2" points="1690.65,-1021.37 1685,-1012.41 1683.83,-1022.94 1690.65,-1021.37"/>
</g>
<!-- 10&#45;&gt;49 -->
<g id="edge96" class="edge">
<title>10&#45;&gt;49</title>
<path fill="none" stroke="grey" stroke-width="2" d="M1681.88,-1161.96C1594.31,-1146.21 1382.81,-1108.15 1289.06,-1091.29"/>
<polygon fill="grey" stroke="grey" stroke-width="2" points="1289.49,-1087.81 1279.03,-1089.48 1288.25,-1094.7 1289.49,-1087.81"/>
</g>
<!-- 11 -->
<g id="node12" class="node">
<title>11</title>
<path fill="none" stroke="#56d892" stroke-width="2" stroke-dasharray="5,2" d="M2152,-1020C2152,-1020 2098,-1020 2098,-1020 2092,-1020 2086,-1014 2086,-1008 2086,-1008 2086,-980 2086,-980 2086,-974 2092,-968 2098,-968 2098,-968 2152,-968 2152,-968 2158,-968 2164,-974 2164,-980 2164,-980 2164,-1008 2164,-1008 2164,-1014 2158,-1020 2152,-1020"/>
<text text-anchor="middle" x="2125" y="-1008" font-family="sans" font-size="10.00">trimmomatic</text>
<text text-anchor="middle" x="2125" y="-997" font-family="sans" font-size="10.00">insert: 0058</text>
<text text-anchor="middle" x="2125" y="-986" font-family="sans" font-size="10.00">sample: Mhap</text>
<text text-anchor="middle" x="2125" y="-975" font-family="sans" font-size="10.00">trimbin: 1P</text>
</g>
<!-- 11&#45;&gt;0 -->
<g id="edge11" class="edge">
<title>11&#45;&gt;0</title>
<path fill="none" stroke="grey" stroke-width="2" d="M2119.86,-967.91C2114.23,-938.22 2106,-887.23 2106,-843 2106,-843 2106,-843 2106,-769 2106,-728.46 2095.02,-719.53 2086,-680 2059.03,-561.75 2040,-532.29 2040,-411 2040,-411 2040,-411 2040,-185 2040,-132.55 2046.88,-104.85 2006,-72 1953.94,-30.17 1479.11,-21.13 1341.32,-19.39"/>
<polygon fill="grey" stroke="grey" stroke-width="2" points="1341.29,-15.88 1331.25,-19.26 1341.21,-22.88 1341.29,-15.88"/>
</g>
<!-- 19 -->
<g id="node20" class="node">
<title>19</title>
<path fill="none" stroke="#56d8c1" stroke-width="2" stroke-dasharray="5,2" d="M2142,-572C2142,-572 2082,-572 2082,-572 2076,-572 2070,-566 2070,-560 2070,-560 2070,-548 2070,-548 2070,-542 2076,-536 2082,-536 2082,-536 2142,-536 2142,-536 2148,-536 2154,-542 2154,-548 2154,-548 2154,-560 2154,-560 2154,-566 2148,-572 2142,-572"/>
<text text-anchor="middle" x="2112" y="-551.5" font-family="sans" font-size="10.00">trimmed_fastqc</text>
</g>
<!-- 11&#45;&gt;19 -->
<g id="edge51" class="edge">
<title>11&#45;&gt;19</title>
<path fill="none" stroke="grey" stroke-width="2" d="M2130.14,-967.91C2135.77,-938.22 2144,-887.23 2144,-843 2144,-843 2144,-843 2144,-697 2144,-656.04 2131.17,-610.02 2121.76,-581.77"/>
<polygon fill="grey" stroke="grey" stroke-width="2" points="2125.03,-580.53 2118.48,-572.21 2118.41,-582.8 2125.03,-580.53"/>
</g>
<!-- 25 -->
<g id="node26" class="node">
<title>25</title>
<path fill="none" stroke="#56d85b" stroke-width="2" stroke-dasharray="5,2" d="M2171.5,-116C2171.5,-116 2118.5,-116 2118.5,-116 2112.5,-116 2106.5,-110 2106.5,-104 2106.5,-104 2106.5,-92 2106.5,-92 2106.5,-86 2112.5,-80 2118.5,-80 2118.5,-80 2171.5,-80 2171.5,-80 2177.5,-80 2183.5,-86 2183.5,-92 2183.5,-92 2183.5,-104 2183.5,-104 2183.5,-110 2177.5,-116 2171.5,-116"/>
<text text-anchor="middle" x="2145" y="-101" font-family="sans" font-size="10.00">concatenation</text>
<text text-anchor="middle" x="2145" y="-90" font-family="sans" font-size="10.00">FR: 1</text>
</g>
<!-- 11&#45;&gt;25 -->
<g id="edge59" class="edge">
<title>11&#45;&gt;25</title>
<path fill="none" stroke="grey" stroke-width="2" d="M2141.03,-967.83C2157.89,-938.88 2182,-889.38 2182,-843 2182,-843 2182,-843 2182,-265 2182,-214.91 2165.75,-158.31 2154.79,-125.83"/>
<polygon fill="grey" stroke="grey" stroke-width="2" points="2158.02,-124.47 2151.44,-116.17 2151.41,-126.76 2158.02,-124.47"/>
</g>
<!-- 32 -->
<g id="node33" class="node">
<title>32</title>
<path fill="none" stroke="#d8bc56" stroke-width="2" stroke-dasharray="5,2" d="M1989.5,-932C1989.5,-932 1920.5,-932 1920.5,-932 1914.5,-932 1908.5,-926 1908.5,-920 1908.5,-920 1908.5,-908 1908.5,-908 1908.5,-902 1914.5,-896 1920.5,-896 1920.5,-896 1989.5,-896 1989.5,-896 1995.5,-896 2001.5,-902 2001.5,-908 2001.5,-908 2001.5,-920 2001.5,-920 2001.5,-926 1995.5,-932 1989.5,-932"/>
<text text-anchor="middle" x="1955" y="-911.5" font-family="sans" font-size="10.00">bwa_mem_paired</text>
</g>
<!-- 11&#45;&gt;32 -->
<g id="edge73" class="edge">
<title>11&#45;&gt;32</title>
<path fill="none" stroke="grey" stroke-width="2" d="M2086,-975.11C2060.74,-963.52 2027.74,-948.37 2001.17,-936.19"/>
<polygon fill="grey" stroke="grey" stroke-width="2" points="2002.62,-933 1992.07,-932.01 1999.7,-939.36 2002.62,-933"/>
</g>
<!-- 12 -->
<g id="node13" class="node">
<title>12</title>
<path fill="none" stroke="#56d892" stroke-width="2" stroke-dasharray="5,2" d="M2383,-1020C2383,-1020 2329,-1020 2329,-1020 2323,-1020 2317,-1014 2317,-1008 2317,-1008 2317,-980 2317,-980 2317,-974 2323,-968 2329,-968 2329,-968 2383,-968 2383,-968 2389,-968 2395,-974 2395,-980 2395,-980 2395,-1008 2395,-1008 2395,-1014 2389,-1020 2383,-1020"/>
<text text-anchor="middle" x="2356" y="-1008" font-family="sans" font-size="10.00">trimmomatic</text>
<text text-anchor="middle" x="2356" y="-997" font-family="sans" font-size="10.00">insert: 0058</text>
<text text-anchor="middle" x="2356" y="-986" font-family="sans" font-size="10.00">sample: Mhap</text>
<text text-anchor="middle" x="2356" y="-975" font-family="sans" font-size="10.00">trimbin: 2P</text>
</g>
<!-- 12&#45;&gt;0 -->
<g id="edge12" class="edge">
<title>12&#45;&gt;0</title>
<path fill="none" stroke="grey" stroke-width="2" d="M2347.87,-967.76C2344.76,-956.88 2341.59,-943.94 2340,-932 2309.5,-702.46 2336,-642.56 2336,-411 2336,-411 2336,-411 2336,-337 2336,-219.21 2414.6,-156.94 2333,-72 2297.95,-35.52 1521.17,-22.12 1341.06,-19.5"/>
<polygon fill="grey" stroke="grey" stroke-width="2" points="1341.06,-16 1331.01,-19.36 1340.96,-23 1341.06,-16"/>
</g>
<!-- 20 -->
<g id="node21" class="node">
<title>20</title>
<path fill="none" stroke="#56d8c1" stroke-width="2" stroke-dasharray="5,2" d="M2421,-932C2421,-932 2361,-932 2361,-932 2355,-932 2349,-926 2349,-920 2349,-920 2349,-908 2349,-908 2349,-902 2355,-896 2361,-896 2361,-896 2421,-896 2421,-896 2427,-896 2433,-902 2433,-908 2433,-908 2433,-920 2433,-920 2433,-926 2427,-932 2421,-932"/>
<text text-anchor="middle" x="2391" y="-911.5" font-family="sans" font-size="10.00">trimmed_fastqc</text>
</g>
<!-- 12&#45;&gt;20 -->
<g id="edge52" class="edge">
<title>12&#45;&gt;20</title>
<path fill="none" stroke="grey" stroke-width="2" d="M2367.27,-967.89C2371.04,-959.48 2375.26,-950.07 2379.08,-941.55"/>
<polygon fill="grey" stroke="grey" stroke-width="2" points="2382.29,-942.97 2383.19,-932.41 2375.9,-940.1 2382.29,-942.97"/>
</g>
<!-- 26 -->
<g id="node27" class="node">
<title>26</title>
<path fill="none" stroke="#56d85b" stroke-width="2" stroke-dasharray="5,2" d="M2483.5,-116C2483.5,-116 2430.5,-116 2430.5,-116 2424.5,-116 2418.5,-110 2418.5,-104 2418.5,-104 2418.5,-92 2418.5,-92 2418.5,-86 2424.5,-80 2430.5,-80 2430.5,-80 2483.5,-80 2483.5,-80 2489.5,-80 2495.5,-86 2495.5,-92 2495.5,-92 2495.5,-104 2495.5,-104 2495.5,-110 2489.5,-116 2483.5,-116"/>
<text text-anchor="middle" x="2457" y="-101" font-family="sans" font-size="10.00">concatenation</text>
<text text-anchor="middle" x="2457" y="-90" font-family="sans" font-size="10.00">FR: 2</text>
</g>
<!-- 12&#45;&gt;26 -->
<g id="edge61" class="edge">
<title>12&#45;&gt;26</title>
<path fill="none" stroke="grey" stroke-width="2" d="M2395.44,-973.61C2412.22,-963.43 2430.53,-949.43 2442,-932 2464.24,-898.21 2461,-883.45 2461,-843 2461,-843 2461,-843 2461,-265 2461,-216.31 2459.26,-159.61 2458.07,-126.66"/>
<polygon fill="grey" stroke="grey" stroke-width="2" points="2461.56,-126.31 2457.7,-116.44 2454.57,-126.57 2461.56,-126.31"/>
</g>
<!-- 12&#45;&gt;32 -->
<g id="edge74" class="edge">
<title>12&#45;&gt;32</title>
<path fill="none" stroke="grey" stroke-width="2" d="M2316.82,-985.38C2245.5,-971.51 2094.23,-942.08 2011.66,-926.02"/>
<polygon fill="grey" stroke="grey" stroke-width="2" points="2012.19,-922.56 2001.7,-924.08 2010.85,-929.43 2012.19,-922.56"/>
</g>
<!-- 13 -->
<g id="node14" class="node">
<title>13</title>
<path fill="none" stroke="#56d892" stroke-width="2" stroke-dasharray="5,2" d="M2276,-212C2276,-212 2222,-212 2222,-212 2216,-212 2210,-206 2210,-200 2210,-200 2210,-172 2210,-172 2210,-166 2216,-160 2222,-160 2222,-160 2276,-160 2276,-160 2282,-160 2288,-166 2288,-172 2288,-172 2288,-200 2288,-200 2288,-206 2282,-212 2276,-212"/>
<text text-anchor="middle" x="2249" y="-200" font-family="sans" font-size="10.00">trimmomatic</text>
<text text-anchor="middle" x="2249" y="-189" font-family="sans" font-size="10.00">insert: 0058</text>
<text text-anchor="middle" x="2249" y="-178" font-family="sans" font-size="10.00">sample: Mhap</text>
<text text-anchor="middle" x="2249" y="-167" font-family="sans" font-size="10.00">trimbin: 1U</text>
</g>
<!-- 13&#45;&gt;0 -->
<g id="edge13" class="edge">
<title>13&#45;&gt;0</title>
<path fill="none" stroke="grey" stroke-width="2" d="M2239.72,-159.84C2228.09,-129.82 2207.79,-82.38 2192,-72 2120.17,-24.78 1501.67,-19.61 1341.66,-19.06"/>
<polygon fill="grey" stroke="grey" stroke-width="2" points="1341.38,-15.56 1331.37,-19.03 1341.36,-22.56 1341.38,-15.56"/>
</g>
<!-- 21 -->
<g id="node22" class="node">
<title>21</title>
<path fill="none" stroke="#56d8c1" stroke-width="2" stroke-dasharray="5,2" d="M2312,-116C2312,-116 2252,-116 2252,-116 2246,-116 2240,-110 2240,-104 2240,-104 2240,-92 2240,-92 2240,-86 2246,-80 2252,-80 2252,-80 2312,-80 2312,-80 2318,-80 2324,-86 2324,-92 2324,-92 2324,-104 2324,-104 2324,-110 2318,-116 2312,-116"/>
<text text-anchor="middle" x="2282" y="-95.5" font-family="sans" font-size="10.00">trimmed_fastqc</text>
</g>
<!-- 13&#45;&gt;21 -->
<g id="edge53" class="edge">
<title>13&#45;&gt;21</title>
<path fill="none" stroke="grey" stroke-width="2" d="M2258.72,-159.66C2262.86,-148.89 2267.68,-136.33 2271.86,-125.44"/>
<polygon fill="grey" stroke="grey" stroke-width="2" points="2275.16,-126.59 2275.48,-116 2268.63,-124.09 2275.16,-126.59"/>
</g>
<!-- 13&#45;&gt;25 -->
<g id="edge60" class="edge">
<title>13&#45;&gt;25</title>
<path fill="none" stroke="grey" stroke-width="2" d="M2218.64,-159.89C2204.41,-148.12 2187.54,-134.18 2173.54,-122.6"/>
<polygon fill="grey" stroke="grey" stroke-width="2" points="2175.61,-119.77 2165.67,-116.1 2171.15,-125.17 2175.61,-119.77"/>
</g>
<!-- 14 -->
<g id="node15" class="node">
<title>14</title>
<path fill="none" stroke="#56d892" stroke-width="2" stroke-dasharray="5,2" d="M2555,-212C2555,-212 2501,-212 2501,-212 2495,-212 2489,-206 2489,-200 2489,-200 2489,-172 2489,-172 2489,-166 2495,-160 2501,-160 2501,-160 2555,-160 2555,-160 2561,-160 2567,-166 2567,-172 2567,-172 2567,-200 2567,-200 2567,-206 2561,-212 2555,-212"/>
<text text-anchor="middle" x="2528" y="-200" font-family="sans" font-size="10.00">trimmomatic</text>
<text text-anchor="middle" x="2528" y="-189" font-family="sans" font-size="10.00">insert: 0058</text>
<text text-anchor="middle" x="2528" y="-178" font-family="sans" font-size="10.00">sample: Mhap</text>
<text text-anchor="middle" x="2528" y="-167" font-family="sans" font-size="10.00">trimbin: 2U</text>
</g>
<!-- 14&#45;&gt;0 -->
<g id="edge14" class="edge">
<title>14&#45;&gt;0</title>
<path fill="none" stroke="grey" stroke-width="2" d="M2530.65,-159.94C2531.89,-133.66 2529.1,-93.26 2504,-72 2458.57,-33.51 1538.83,-21.51 1341.2,-19.37"/>
<polygon fill="grey" stroke="grey" stroke-width="2" points="1341.07,-15.87 1331.03,-19.26 1340.99,-22.87 1341.07,-15.87"/>
</g>
<!-- 22 -->
<g id="node23" class="node">
<title>22</title>
<path fill="none" stroke="#56d8c1" stroke-width="2" stroke-dasharray="5,2" d="M2624,-116C2624,-116 2564,-116 2564,-116 2558,-116 2552,-110 2552,-104 2552,-104 2552,-92 2552,-92 2552,-86 2558,-80 2564,-80 2564,-80 2624,-80 2624,-80 2630,-80 2636,-86 2636,-92 2636,-92 2636,-104 2636,-104 2636,-110 2630,-116 2624,-116"/>
<text text-anchor="middle" x="2594" y="-95.5" font-family="sans" font-size="10.00">trimmed_fastqc</text>
</g>
<!-- 14&#45;&gt;22 -->
<g id="edge54" class="edge">
<title>14&#45;&gt;22</title>
<path fill="none" stroke="grey" stroke-width="2" d="M2547.45,-159.66C2556.05,-148.45 2566.14,-135.3 2574.73,-124.11"/>
<polygon fill="grey" stroke="grey" stroke-width="2" points="2577.64,-126.07 2580.95,-116 2572.09,-121.81 2577.64,-126.07"/>
</g>
<!-- 14&#45;&gt;26 -->
<g id="edge62" class="edge">
<title>14&#45;&gt;26</title>
<path fill="none" stroke="grey" stroke-width="2" d="M2507.08,-159.66C2497.73,-148.34 2486.75,-135.04 2477.46,-123.78"/>
<polygon fill="grey" stroke="grey" stroke-width="2" points="2480.1,-121.49 2471.04,-116 2474.71,-125.94 2480.1,-121.49"/>
</g>
<!-- 15&#45;&gt;0 -->
<g id="edge15" class="edge">
<title>15&#45;&gt;0</title>
<path fill="none" stroke="grey" stroke-width="2" d="M598.48,-823.79C607.83,-797.36 624,-744.99 624,-699 624,-699 624,-699 624,-185 624,-133.66 609.44,-105.9 648,-72 694.64,-31.01 1135.01,-21.42 1266.87,-19.46"/>
<polygon fill="grey" stroke="grey" stroke-width="2" points="1266.94,-22.96 1276.89,-19.31 1266.84,-15.96 1266.94,-22.96"/>
</g>
<!-- 16&#45;&gt;0 -->
<g id="edge16" class="edge">
<title>16&#45;&gt;0</title>
<path fill="none" stroke="grey" stroke-width="2" d="M1643.03,-751.74C1650.13,-712.69 1669.27,-614.8 1696,-536 1701.62,-519.42 1706.15,-516.5 1712,-500 1725.69,-461.39 1736,-451.97 1736,-411 1736,-411 1736,-411 1736,-185 1736,-133.66 1749.73,-106.82 1712,-72 1658.48,-22.6 1431.33,-18.27 1341.13,-18.56"/>
<polygon fill="grey" stroke="grey" stroke-width="2" points="1341.07,-15.06 1331.08,-18.61 1341.1,-22.06 1341.07,-15.06"/>
</g>
<!-- 17&#45;&gt;0 -->
<g id="edge17" class="edge">
<title>17&#45;&gt;0</title>
<path fill="none" stroke="grey" stroke-width="2" d="M763.52,-823.79C754.17,-797.36 738,-744.99 738,-699 738,-699 738,-699 738,-185 738,-133.66 723.72,-106.22 762,-72 799.55,-38.43 1150.14,-24.02 1266.6,-20.14"/>
<polygon fill="grey" stroke="grey" stroke-width="2" points="1266.92,-23.63 1276.8,-19.8 1266.7,-16.63 1266.92,-23.63"/>
</g>
<!-- 18&#45;&gt;0 -->
<g id="edge18" class="edge">
<title>18&#45;&gt;0</title>
<path fill="none" stroke="grey" stroke-width="2" d="M1827.73,-535.87C1846.97,-500.36 1888,-415.62 1888,-339 1888,-339 1888,-339 1888,-185 1888,-127.71 1873.76,-103.64 1826,-72 1746.43,-19.29 1447.36,-17.36 1341.46,-18.4"/>
<polygon fill="grey" stroke="grey" stroke-width="2" points="1341.21,-14.9 1331.25,-18.51 1341.28,-21.9 1341.21,-14.9"/>
</g>
<!-- 19&#45;&gt;0 -->
<g id="edge19" class="edge">
<title>19&#45;&gt;0</title>
<path fill="none" stroke="grey" stroke-width="2" d="M2105.12,-535.83C2095.18,-509.44 2078,-457.14 2078,-411 2078,-411 2078,-411 2078,-185 2078,-133.66 2092.73,-105.7 2054,-72 1999.84,-24.88 1484.9,-19.6 1341.12,-19.05"/>
<polygon fill="grey" stroke="grey" stroke-width="2" points="1341.05,-15.55 1331.04,-19.02 1341.03,-22.55 1341.05,-15.55"/>
</g>
<!-- 20&#45;&gt;0 -->
<g id="edge20" class="edge">
<title>20&#45;&gt;0</title>
<path fill="none" stroke="grey" stroke-width="2" d="M2390.8,-895.95C2390.51,-869.29 2390,-816.12 2390,-771 2390,-771 2390,-771 2390,-185 2390,-133.66 2405.08,-105.3 2366,-72 2326.22,-38.1 1525.57,-22.7 1341.5,-19.6"/>
<polygon fill="grey" stroke="grey" stroke-width="2" points="1341.3,-16.1 1331.25,-19.43 1341.19,-23.09 1341.3,-16.1"/>
</g>
<!-- 21&#45;&gt;0 -->
<g id="edge21" class="edge">
<title>21&#45;&gt;0</title>
<path fill="none" stroke="grey" stroke-width="2" d="M2248.94,-79.88C2241.56,-76.74 2233.66,-73.86 2226,-72 2053.89,-30.13 1492.07,-21.05 1341.44,-19.35"/>
<polygon fill="grey" stroke="grey" stroke-width="2" points="1341.36,-15.85 1331.32,-19.24 1341.28,-22.85 1341.36,-15.85"/>
</g>
<!-- 22&#45;&gt;0 -->
<g id="edge22" class="edge">
<title>22&#45;&gt;0</title>
<path fill="none" stroke="grey" stroke-width="2" d="M2561.26,-79.93C2553.8,-76.74 2545.77,-73.83 2538,-72 2302.15,-16.43 1521.01,-17.67 1341.16,-18.72"/>
<polygon fill="grey" stroke="grey" stroke-width="2" points="1341.11,-15.22 1331.13,-18.79 1341.15,-22.22 1341.11,-15.22"/>
</g>
<!-- 23&#45;&gt;0 -->
<g id="edge23" class="edge">
<title>23&#45;&gt;0</title>
<path fill="none" stroke="grey" stroke-width="2" d="M550.95,-975.82C548.05,-950.51 542.88,-901.69 541,-860 540.28,-844.02 540.79,-840 541,-824 543.89,-608.39 554,-554.63 554,-339 554,-339 554,-339 554,-265 554,-174.63 546.82,-127.68 618,-72 669.3,-31.87 1131.08,-21.65 1266.71,-19.5"/>
<polygon fill="grey" stroke="grey" stroke-width="2" points="1267.05,-23 1276.99,-19.35 1266.94,-16 1267.05,-23"/>
</g>
<!-- 24&#45;&gt;0 -->
<g id="edge24" class="edge">
<title>24&#45;&gt;0</title>
<path fill="none" stroke="grey" stroke-width="2" d="M1686.59,-975.66C1695.02,-947.94 1710,-891.8 1710,-843 1710,-843 1710,-843 1710,-625 1710,-525.73 1774,-510.27 1774,-411 1774,-411 1774,-411 1774,-185 1774,-132.55 1780.12,-105.78 1740,-72 1680.11,-21.58 1435.79,-17.95 1341.43,-18.48"/>
<polygon fill="grey" stroke="grey" stroke-width="2" points="1341.18,-14.98 1331.21,-18.56 1341.24,-21.98 1341.18,-14.98"/>
</g>
<!-- 25&#45;&gt;0 -->
<g id="edge25" class="edge">
<title>25&#45;&gt;0</title>
<path fill="none" stroke="grey" stroke-width="2" d="M2113.77,-79.93C2106.79,-76.78 2099.29,-73.89 2092,-72 1947.44,-34.48 1478.27,-22.44 1341.65,-19.68"/>
<polygon fill="grey" stroke="grey" stroke-width="2" points="1341.36,-16.17 1331.3,-19.48 1341.23,-23.17 1341.36,-16.17"/>
</g>
<!-- 26&#45;&gt;0 -->
<g id="edge26" class="edge">
<title>26&#45;&gt;0</title>
<path fill="none" stroke="grey" stroke-width="2" d="M2426.08,-79.95C2419.02,-76.76 2411.4,-73.85 2404,-72 2196.05,-20.13 1508.69,-18.46 1341.09,-18.85"/>
<polygon fill="grey" stroke="grey" stroke-width="2" points="1341.03,-15.35 1331.04,-18.88 1341.05,-22.35 1341.03,-15.35"/>
</g>
<!-- 27 -->
<g id="node28" class="node">
<title>27</title>
<path fill="none" stroke="#d87556" stroke-width="2" stroke-dasharray="5,2" d="M2749,-284C2749,-284 2691,-284 2691,-284 2685,-284 2679,-278 2679,-272 2679,-272 2679,-260 2679,-260 2679,-254 2685,-248 2691,-248 2691,-248 2749,-248 2749,-248 2755,-248 2761,-254 2761,-260 2761,-260 2761,-272 2761,-272 2761,-278 2755,-284 2749,-284"/>
<text text-anchor="middle" x="2720" y="-263.5" font-family="sans" font-size="10.00">kmc_transform</text>
</g>
<!-- 27&#45;&gt;0 -->
<g id="edge27" class="edge">
<title>27&#45;&gt;0</title>
<path fill="none" stroke="grey" stroke-width="2" d="M2705.7,-247.79C2698.04,-237.85 2688.99,-224.81 2683,-212 2655.7,-153.59 2695.43,-112.17 2645,-72 2592.63,-30.29 1553.02,-20.75 1341.4,-19.24"/>
<polygon fill="grey" stroke="grey" stroke-width="2" points="1341.15,-15.74 1331.12,-19.17 1341.1,-22.74 1341.15,-15.74"/>
</g>
<!-- 48 -->
<g id="node49" class="node">
<title>48</title>
<path fill="none" stroke="#567bd8" stroke-width="2" stroke-dasharray="5,2" d="M2848.5,-204C2848.5,-204 2703.5,-204 2703.5,-204 2697.5,-204 2691.5,-198 2691.5,-192 2691.5,-192 2691.5,-180 2691.5,-180 2691.5,-174 2697.5,-168 2703.5,-168 2703.5,-168 2848.5,-168 2848.5,-168 2854.5,-168 2860.5,-174 2860.5,-180 2860.5,-180 2860.5,-192 2860.5,-192 2860.5,-198 2854.5,-204 2848.5,-204"/>
<text text-anchor="middle" x="2776" y="-183.5" font-family="sans" font-size="10.00">kmc2genomescope_transformation</text>
</g>
<!-- 27&#45;&gt;48 -->
<g id="edge94" class="edge">
<title>27&#45;&gt;48</title>
<path fill="none" stroke="grey" stroke-width="2" d="M2732.43,-247.69C2739.82,-237.39 2749.34,-224.13 2757.6,-212.63"/>
<polygon fill="grey" stroke="grey" stroke-width="2" points="2760.62,-214.43 2763.61,-204.26 2754.93,-210.34 2760.62,-214.43"/>
</g>
<!-- 28 -->
<g id="node29" class="node">
<title>28</title>
<path fill="none" stroke="#d86656" stroke-width="2" stroke-dasharray="5,2" d="M2779.5,-116C2779.5,-116 2726.5,-116 2726.5,-116 2720.5,-116 2714.5,-110 2714.5,-104 2714.5,-104 2714.5,-92 2714.5,-92 2714.5,-86 2720.5,-80 2726.5,-80 2726.5,-80 2779.5,-80 2779.5,-80 2785.5,-80 2791.5,-86 2791.5,-92 2791.5,-92 2791.5,-104 2791.5,-104 2791.5,-110 2785.5,-116 2779.5,-116"/>
<text text-anchor="middle" x="2753" y="-95.5" font-family="sans" font-size="10.00">genomescope</text>
</g>
<!-- 28&#45;&gt;0 -->
<g id="edge28" class="edge">
<title>28&#45;&gt;0</title>
<path fill="none" stroke="grey" stroke-width="2" d="M2714.23,-81.76C2702.74,-77.88 2690.02,-74.19 2678,-72 2410.77,-23.33 1532.86,-19.31 1341.18,-19.02"/>
<polygon fill="grey" stroke="grey" stroke-width="2" points="1341.06,-15.51 1331.05,-19 1341.05,-22.51 1341.06,-15.51"/>
</g>
<!-- 29&#45;&gt;0 -->
<g id="edge29" class="edge">
<title>29&#45;&gt;0</title>
<path fill="none" stroke="grey" stroke-width="2" d="M1210.3,-991.62C1131.2,-987.64 932.37,-973.63 883,-932 828.09,-885.69 776,-698.83 776,-627 776,-627 776,-627 776,-185 776,-130.08 781.7,-104.46 826,-72 895.86,-20.82 1166.36,-17.78 1266.47,-18.47"/>
<polygon fill="grey" stroke="grey" stroke-width="2" points="1266.69,-21.97 1276.72,-18.56 1266.75,-14.97 1266.69,-21.97"/>
</g>
<!-- 30 -->
<g id="node31" class="node">
<title>30</title>
<path fill="none" stroke="#56b9d8" stroke-width="2" stroke-dasharray="5,2" d="M884,-788C884,-788 854,-788 854,-788 848,-788 842,-782 842,-776 842,-776 842,-764 842,-764 842,-758 848,-752 854,-752 854,-752 884,-752 884,-752 890,-752 896,-758 896,-764 896,-764 896,-776 896,-776 896,-782 890,-788 884,-788"/>
<text text-anchor="middle" x="869" y="-767.5" font-family="sans" font-size="10.00">blast</text>
</g>
<!-- 29&#45;&gt;30 -->
<g id="edge68" class="edge">
<title>29&#45;&gt;30</title>
<path fill="none" stroke="grey" stroke-width="2" d="M1210.31,-991.4C1135.18,-987.04 953.33,-972.47 910,-932 872.94,-897.39 867.45,-834.38 867.64,-798.3"/>
<polygon fill="grey" stroke="grey" stroke-width="2" points="871.14,-798.11 867.85,-788.04 864.15,-797.96 871.14,-798.11"/>
</g>
<!-- 29&#45;&gt;31 -->
<g id="edge69" class="edge">
<title>29&#45;&gt;31</title>
<path fill="none" stroke="grey" stroke-width="2" d="M1243,-975.69C1243,-965.89 1243,-953.42 1243,-942.33"/>
<polygon fill="grey" stroke="grey" stroke-width="2" points="1246.5,-942.26 1243,-932.26 1239.5,-942.26 1246.5,-942.26"/>
</g>
<!-- 29&#45;&gt;32 -->
<g id="edge72" class="edge">
<title>29&#45;&gt;32</title>
<path fill="none" stroke="grey" stroke-width="2" d="M1275.91,-989.39C1387.98,-977.12 1755.6,-936.84 1897.97,-921.25"/>
<polygon fill="grey" stroke="grey" stroke-width="2" points="1898.67,-924.69 1908.23,-920.12 1897.91,-917.73 1898.67,-924.69"/>
</g>
<!-- 37 -->
<g id="node38" class="node">
<title>37</title>
<path fill="none" stroke="#afd856" stroke-width="2" stroke-dasharray="5,2" d="M1275,-716C1275,-716 1211,-716 1211,-716 1205,-716 1199,-710 1199,-704 1199,-704 1199,-692 1199,-692 1199,-686 1205,-680 1211,-680 1211,-680 1275,-680 1275,-680 1281,-680 1287,-686 1287,-692 1287,-692 1287,-704 1287,-704 1287,-710 1281,-716 1275,-716"/>
<text text-anchor="middle" x="1243" y="-695.5" font-family="sans" font-size="10.00">blobtools_create</text>
</g>
<!-- 29&#45;&gt;37 -->
<g id="edge79" class="edge">
<title>29&#45;&gt;37</title>
<path fill="none" stroke="grey" stroke-width="2" d="M1265.02,-975.79C1277.27,-964.76 1291.35,-949.3 1298,-932 1313.09,-892.73 1312.45,-839.83 1279,-752 1275.36,-742.43 1269.68,-732.9 1263.9,-724.6"/>
<polygon fill="grey" stroke="grey" stroke-width="2" points="1266.67,-722.45 1257.93,-716.46 1261.02,-726.59 1266.67,-722.45"/>
</g>
<!-- 38 -->
<g id="node39" class="node">
<title>38</title>
<path fill="none" stroke="#afd856" stroke-width="2" stroke-dasharray="5,2" d="M922,-716C922,-716 858,-716 858,-716 852,-716 846,-710 846,-704 846,-704 846,-692 846,-692 846,-686 852,-680 858,-680 858,-680 922,-680 922,-680 928,-680 934,-686 934,-692 934,-692 934,-704 934,-704 934,-710 928,-716 922,-716"/>
<text text-anchor="middle" x="890" y="-695.5" font-family="sans" font-size="10.00">blobtools_create</text>
</g>
<!-- 29&#45;&gt;38 -->
<g id="edge82" class="edge">
<title>29&#45;&gt;38</title>
<path fill="none" stroke="grey" stroke-width="2" d="M1210.17,-986.97C1149.89,-974.22 1021.06,-938.97 948,-860 938.59,-849.83 912.1,-768.99 898.41,-725.88"/>
<polygon fill="grey" stroke="grey" stroke-width="2" points="901.73,-724.77 895.38,-716.29 895.06,-726.88 901.73,-724.77"/>
</g>
<!-- 63 -->
<g id="node64" class="node">
<title>63</title>
<path fill="none" stroke="#d89c56" stroke-width="2" stroke-dasharray="5,2" d="M1657.5,-500C1657.5,-500 1580.5,-500 1580.5,-500 1574.5,-500 1568.5,-494 1568.5,-488 1568.5,-488 1568.5,-476 1568.5,-476 1568.5,-470 1574.5,-464 1580.5,-464 1580.5,-464 1657.5,-464 1657.5,-464 1663.5,-464 1669.5,-470 1669.5,-476 1669.5,-476 1669.5,-488 1669.5,-488 1669.5,-494 1663.5,-500 1657.5,-500"/>
<text text-anchor="middle" x="1619" y="-479.5" font-family="sans" font-size="10.00">preassembly_index</text>
</g>
<!-- 29&#45;&gt;63 -->
<g id="edge113" class="edge">
<title>29&#45;&gt;63</title>
<path fill="none" stroke="grey" stroke-width="2" d="M1275.59,-991.08C1351.17,-984.7 1532,-957.47 1532,-843 1532,-843 1532,-843 1532,-625 1532,-578.16 1566.84,-533.74 1592.43,-507.43"/>
<polygon fill="grey" stroke="grey" stroke-width="2" points="1595.08,-509.72 1599.69,-500.18 1590.14,-504.77 1595.08,-509.72"/>
</g>
<!-- 30&#45;&gt;0 -->
<g id="edge30" class="edge">
<title>30&#45;&gt;0</title>
<path fill="none" stroke="grey" stroke-width="2" d="M856.69,-751.54C850.08,-741.52 842.25,-728.48 837,-716 821.16,-678.34 814,-667.86 814,-627 814,-627 814,-627 814,-185 814,-123.21 841.96,-103.71 895,-72 957.38,-34.71 1178,-23.23 1266.69,-20.08"/>
<polygon fill="grey" stroke="grey" stroke-width="2" points="1266.95,-23.57 1276.83,-19.73 1266.71,-16.58 1266.95,-23.57"/>
</g>
<!-- 30&#45;&gt;37 -->
<g id="edge81" class="edge">
<title>30&#45;&gt;37</title>
<path fill="none" stroke="grey" stroke-width="2" d="M896.2,-763.91C957.53,-752.43 1107.59,-724.34 1188.75,-709.15"/>
<polygon fill="grey" stroke="grey" stroke-width="2" points="1189.59,-712.56 1198.78,-707.28 1188.31,-705.68 1189.59,-712.56"/>
</g>
<!-- 30&#45;&gt;38 -->
<g id="edge84" class="edge">
<title>30&#45;&gt;38</title>
<path fill="none" stroke="grey" stroke-width="2" d="M874.19,-751.7C876.53,-743.9 879.35,-734.51 881.95,-725.83"/>
<polygon fill="grey" stroke="grey" stroke-width="2" points="885.35,-726.69 884.87,-716.1 878.64,-724.68 885.35,-726.69"/>
</g>
<!-- 31&#45;&gt;0 -->
<g id="edge31" class="edge">
<title>31&#45;&gt;0</title>
<path fill="none" stroke="grey" stroke-width="2" d="M1210.42,-895.83C1145.59,-859.56 1001.93,-768.14 947,-644 940.53,-629.37 944.78,-623.84 947,-608 964.28,-484.85 1024,-463.36 1024,-339 1024,-339 1024,-339 1024,-185 1024,-131.42 1025.61,-107.21 1066,-72 1095.65,-46.15 1207.68,-29.9 1266.85,-22.94"/>
<polygon fill="grey" stroke="grey" stroke-width="2" points="1267.37,-26.4 1276.91,-21.78 1266.58,-19.44 1267.37,-26.4"/>
</g>
<!-- 50 -->
<g id="node51" class="node">
<title>50</title>
<path fill="none" stroke="#c6d856" stroke-width="2" stroke-dasharray="5,2" d="M1260.5,-860C1260.5,-860 1225.5,-860 1225.5,-860 1219.5,-860 1213.5,-854 1213.5,-848 1213.5,-848 1213.5,-836 1213.5,-836 1213.5,-830 1219.5,-824 1225.5,-824 1225.5,-824 1260.5,-824 1260.5,-824 1266.5,-824 1272.5,-830 1272.5,-836 1272.5,-836 1272.5,-848 1272.5,-848 1272.5,-854 1266.5,-860 1260.5,-860"/>
<text text-anchor="middle" x="1243" y="-839.5" font-family="sans" font-size="10.00">sam2bam</text>
</g>
<!-- 31&#45;&gt;50 -->
<g id="edge97" class="edge">
<title>31&#45;&gt;50</title>
<path fill="none" stroke="grey" stroke-width="2" d="M1243,-895.7C1243,-887.98 1243,-878.71 1243,-870.11"/>
<polygon fill="grey" stroke="grey" stroke-width="2" points="1246.5,-870.1 1243,-860.1 1239.5,-870.1 1246.5,-870.1"/>
</g>
<!-- 59 -->
<g id="node60" class="node">
<title>59</title>
<path fill="none" stroke="#568ad8" stroke-width="2" stroke-dasharray="5,2" d="M1449,-356C1449,-356 1363,-356 1363,-356 1357,-356 1351,-350 1351,-344 1351,-344 1351,-332 1351,-332 1351,-326 1357,-320 1363,-320 1363,-320 1449,-320 1449,-320 1455,-320 1461,-326 1461,-332 1461,-332 1461,-344 1461,-344 1461,-350 1455,-356 1449,-356"/>
<text text-anchor="middle" x="1406" y="-335.5" font-family="sans" font-size="10.00">pulling_clean_contigs</text>
</g>
<!-- 31&#45;&gt;59 -->
<g id="edge106" class="edge">
<title>31&#45;&gt;59</title>
<path fill="none" stroke="grey" stroke-width="2" d="M1260.42,-895.75C1312.59,-842.67 1467.25,-674.81 1520,-500 1524.62,-484.68 1529.8,-476.64 1520,-464 1480.63,-413.23 1419.37,-478.77 1380,-428 1365.78,-409.66 1375.82,-383.75 1387.31,-364.61"/>
<polygon fill="grey" stroke="grey" stroke-width="2" points="1390.33,-366.39 1392.78,-356.09 1384.44,-362.61 1390.33,-366.39"/>
</g>
<!-- 32&#45;&gt;0 -->
<g id="edge32" class="edge">
<title>32&#45;&gt;0</title>
<path fill="none" stroke="grey" stroke-width="2" d="M1949.13,-895.74C1940.66,-869.25 1926,-816.79 1926,-771 1926,-771 1926,-771 1926,-185 1926,-128.14 1913.3,-103.56 1866,-72 1822.43,-42.93 1459.66,-25.45 1341.23,-20.48"/>
<polygon fill="grey" stroke="grey" stroke-width="2" points="1341.33,-16.98 1331.19,-20.06 1341.04,-23.97 1341.33,-16.98"/>
</g>
<!-- 51 -->
<g id="node52" class="node">
<title>51</title>
<path fill="none" stroke="#c6d856" stroke-width="2" stroke-dasharray="5,2" d="M2001.5,-860C2001.5,-860 1966.5,-860 1966.5,-860 1960.5,-860 1954.5,-854 1954.5,-848 1954.5,-848 1954.5,-836 1954.5,-836 1954.5,-830 1960.5,-824 1966.5,-824 1966.5,-824 2001.5,-824 2001.5,-824 2007.5,-824 2013.5,-830 2013.5,-836 2013.5,-836 2013.5,-848 2013.5,-848 2013.5,-854 2007.5,-860 2001.5,-860"/>
<text text-anchor="middle" x="1984" y="-839.5" font-family="sans" font-size="10.00">sam2bam</text>
</g>
<!-- 32&#45;&gt;51 -->
<g id="edge98" class="edge">
<title>32&#45;&gt;51</title>
<path fill="none" stroke="grey" stroke-width="2" d="M1962.17,-895.7C1965.43,-887.81 1969.37,-878.3 1973,-869.55"/>
<polygon fill="grey" stroke="grey" stroke-width="2" points="1976.32,-870.68 1976.91,-860.1 1969.85,-868 1976.32,-870.68"/>
</g>
<!-- 60 -->
<g id="node61" class="node">
<title>60</title>
<path fill="none" stroke="#568ad8" stroke-width="2" stroke-dasharray="5,2" d="M1647,-356C1647,-356 1561,-356 1561,-356 1555,-356 1549,-350 1549,-344 1549,-344 1549,-332 1549,-332 1549,-326 1555,-320 1561,-320 1561,-320 1647,-320 1647,-320 1653,-320 1659,-326 1659,-332 1659,-332 1659,-344 1659,-344 1659,-350 1653,-356 1647,-356"/>
<text text-anchor="middle" x="1604" y="-335.5" font-family="sans" font-size="10.00">pulling_clean_contigs</text>
</g>
<!-- 32&#45;&gt;60 -->
<g id="edge108" class="edge">
<title>32&#45;&gt;60</title>
<path fill="none" stroke="grey" stroke-width="2" d="M1937.83,-895.69C1928.98,-885.93 1918.69,-873.08 1912,-860 1893.35,-823.52 1888,-811.97 1888,-771 1888,-771 1888,-771 1888,-553 1888,-443.88 1752.62,-383.43 1668.8,-356.46"/>
<polygon fill="grey" stroke="grey" stroke-width="2" points="1669.68,-353.07 1659.09,-353.41 1667.59,-359.74 1669.68,-353.07"/>
</g>
<!-- 33 -->
<g id="node34" class="node">
<title>33</title>
<path fill="none" stroke="#56d8a2" stroke-width="2" stroke-dasharray="5,2" d="M1258,-788C1258,-788 1228,-788 1228,-788 1222,-788 1216,-782 1216,-776 1216,-776 1216,-764 1216,-764 1216,-758 1222,-752 1228,-752 1228,-752 1258,-752 1258,-752 1264,-752 1270,-758 1270,-764 1270,-764 1270,-776 1270,-776 1270,-782 1264,-788 1258,-788"/>
<text text-anchor="middle" x="1243" y="-767.5" font-family="sans" font-size="10.00">sort</text>
</g>
<!-- 33&#45;&gt;0 -->
<g id="edge33" class="edge">
<title>33&#45;&gt;0</title>
<path fill="none" stroke="grey" stroke-width="2" d="M1219.42,-751.85C1167.04,-713.19 1043.97,-618.93 1023,-572 1016.47,-557.39 1021.44,-551.92 1023,-536 1031.71,-447.17 1062,-428.25 1062,-339 1062,-339 1062,-339 1062,-185 1062,-130.61 1068.14,-107.91 1109,-72 1153.43,-32.95 1223.92,-22.35 1266.87,-19.66"/>
<polygon fill="grey" stroke="grey" stroke-width="2" points="1267.09,-23.15 1276.9,-19.15 1266.73,-16.16 1267.09,-23.15"/>
</g>
<!-- 35 -->
<g id="node36" class="node">
<title>35</title>
<path fill="none" stroke="#d8ac56" stroke-width="2" stroke-dasharray="5,2" d="M1499.5,-500C1499.5,-500 1438.5,-500 1438.5,-500 1432.5,-500 1426.5,-494 1426.5,-488 1426.5,-488 1426.5,-476 1426.5,-476 1426.5,-470 1432.5,-464 1438.5,-464 1438.5,-464 1499.5,-464 1499.5,-464 1505.5,-464 1511.5,-470 1511.5,-476 1511.5,-476 1511.5,-488 1511.5,-488 1511.5,-494 1505.5,-500 1499.5,-500"/>
<text text-anchor="middle" x="1469" y="-479.5" font-family="sans" font-size="10.00">samtools_index</text>
</g>
<!-- 33&#45;&gt;35 -->
<g id="edge77" class="edge">
<title>33&#45;&gt;35</title>
<path fill="none" stroke="grey" stroke-width="2" d="M1268.72,-751.89C1300.26,-729.9 1353.83,-689.14 1389,-644 1422.03,-601.61 1446.82,-543.41 1459.51,-509.84"/>
<polygon fill="grey" stroke="grey" stroke-width="2" points="1462.87,-510.85 1463.06,-500.26 1456.3,-508.42 1462.87,-510.85"/>
</g>
<!-- 33&#45;&gt;37 -->
<g id="edge80" class="edge">
<title>33&#45;&gt;37</title>
<path fill="none" stroke="grey" stroke-width="2" d="M1243,-751.7C1243,-743.98 1243,-734.71 1243,-726.11"/>
<polygon fill="grey" stroke="grey" stroke-width="2" points="1246.5,-726.1 1243,-716.1 1239.5,-726.1 1246.5,-726.1"/>
</g>
<!-- 34 -->
<g id="node35" class="node">
<title>34</title>
<path fill="none" stroke="#56d8a2" stroke-width="2" stroke-dasharray="5,2" d="M1997,-788C1997,-788 1967,-788 1967,-788 1961,-788 1955,-782 1955,-776 1955,-776 1955,-764 1955,-764 1955,-758 1961,-752 1967,-752 1967,-752 1997,-752 1997,-752 2003,-752 2009,-758 2009,-764 2009,-764 2009,-776 2009,-776 2009,-782 2003,-788 1997,-788"/>
<text text-anchor="middle" x="1982" y="-767.5" font-family="sans" font-size="10.00">sort</text>
</g>
<!-- 34&#45;&gt;0 -->
<g id="edge34" class="edge">
<title>34&#45;&gt;0</title>
<path fill="none" stroke="grey" stroke-width="2" d="M1978.36,-751.6C1973.1,-724.92 1964,-672.23 1964,-627 1964,-627 1964,-627 1964,-185 1964,-133.66 1978.52,-105.94 1940,-72 1894.97,-32.32 1470.62,-21.84 1341.25,-19.56"/>
<polygon fill="grey" stroke="grey" stroke-width="2" points="1341.12,-16.06 1331.06,-19.39 1341,-23.06 1341.12,-16.06"/>
</g>
<!-- 36 -->
<g id="node37" class="node">
<title>36</title>
<path fill="none" stroke="#d8ac56" stroke-width="2" stroke-dasharray="5,2" d="M2065.5,-716C2065.5,-716 2004.5,-716 2004.5,-716 1998.5,-716 1992.5,-710 1992.5,-704 1992.5,-704 1992.5,-692 1992.5,-692 1992.5,-686 1998.5,-680 2004.5,-680 2004.5,-680 2065.5,-680 2065.5,-680 2071.5,-680 2077.5,-686 2077.5,-692 2077.5,-692 2077.5,-704 2077.5,-704 2077.5,-710 2071.5,-716 2065.5,-716"/>
<text text-anchor="middle" x="2035" y="-695.5" font-family="sans" font-size="10.00">samtools_index</text>
</g>
<!-- 34&#45;&gt;36 -->
<g id="edge78" class="edge">
<title>34&#45;&gt;36</title>
<path fill="none" stroke="grey" stroke-width="2" d="M1995.1,-751.7C2001.39,-743.39 2009.05,-733.28 2015.96,-724.14"/>
<polygon fill="grey" stroke="grey" stroke-width="2" points="2018.8,-726.19 2022.05,-716.1 2013.22,-721.96 2018.8,-726.19"/>
</g>
<!-- 34&#45;&gt;38 -->
<g id="edge83" class="edge">
<title>34&#45;&gt;38</title>
<path fill="none" stroke="grey" stroke-width="2" d="M1954.73,-767.25C1811.04,-758.04 1140.86,-715.08 944.31,-702.48"/>
<polygon fill="grey" stroke="grey" stroke-width="2" points="944.42,-698.98 934.22,-701.83 943.98,-705.97 944.42,-698.98"/>
</g>
<!-- 35&#45;&gt;0 -->
<g id="edge35" class="edge">
<title>35&#45;&gt;0</title>
<path fill="none" stroke="grey" stroke-width="2" d="M1426.25,-466.9C1395.63,-455.99 1357.94,-440.67 1347,-428 1320.23,-396.99 1323,-379.97 1323,-339 1323,-339 1323,-339 1323,-185 1323,-136 1314.73,-79.4 1309.1,-46.55"/>
<polygon fill="grey" stroke="grey" stroke-width="2" points="1312.49,-45.61 1307.31,-36.37 1305.6,-46.83 1312.49,-45.61"/>
</g>
<!-- 36&#45;&gt;0 -->
<g id="edge36" class="edge">
<title>36&#45;&gt;0</title>
<path fill="none" stroke="grey" stroke-width="2" d="M2028.32,-679.81C2018.68,-653.4 2002,-601.06 2002,-555 2002,-555 2002,-555 2002,-185 2002,-133.66 2016.6,-105.85 1978,-72 1929.94,-29.85 1475.59,-21.06 1341.24,-19.37"/>
<polygon fill="grey" stroke="grey" stroke-width="2" points="1341.09,-15.87 1331.04,-19.25 1341,-22.87 1341.09,-15.87"/>
</g>
<!-- 37&#45;&gt;0 -->
<g id="edge37" class="edge">
<title>37&#45;&gt;0</title>
<path fill="none" stroke="grey" stroke-width="2" d="M1224.16,-679.81C1214.38,-670.07 1202.88,-657.23 1195,-644 1168.96,-600.28 1192.61,-572.35 1157,-536 1125.11,-503.45 1086.96,-537.45 1061,-500 1051.89,-486.85 1057.86,-479.69 1061,-464 1064.4,-447 1070.4,-444.4 1076,-428 1089.24,-389.23 1100,-379.97 1100,-339 1100,-339 1100,-339 1100,-185 1100,-128.55 1115.65,-109.33 1158,-72 1188.85,-44.81 1234.75,-31.21 1266.83,-24.65"/>
<polygon fill="grey" stroke="grey" stroke-width="2" points="1267.55,-28.08 1276.72,-22.76 1266.24,-21.2 1267.55,-28.08"/>
</g>
<!-- 39 -->
<g id="node40" class="node">
<title>39</title>
<path fill="none" stroke="#d6d856" stroke-width="2" stroke-dasharray="5,2" d="M1368.5,-644C1368.5,-644 1311.5,-644 1311.5,-644 1305.5,-644 1299.5,-638 1299.5,-632 1299.5,-632 1299.5,-620 1299.5,-620 1299.5,-614 1305.5,-608 1311.5,-608 1311.5,-608 1368.5,-608 1368.5,-608 1374.5,-608 1380.5,-614 1380.5,-620 1380.5,-620 1380.5,-632 1380.5,-632 1380.5,-638 1374.5,-644 1368.5,-644"/>
<text text-anchor="middle" x="1340" y="-623.5" font-family="sans" font-size="10.00">blobtools_view</text>
</g>
<!-- 37&#45;&gt;39 -->
<g id="edge85" class="edge">
<title>37&#45;&gt;39</title>
<path fill="none" stroke="grey" stroke-width="2" d="M1266.98,-679.7C1279.31,-670.8 1294.52,-659.82 1307.85,-650.2"/>
<polygon fill="grey" stroke="grey" stroke-width="2" points="1310.24,-652.79 1316.3,-644.1 1306.14,-647.12 1310.24,-652.79"/>
</g>
<!-- 41 -->
<g id="node42" class="node">
<title>41</title>
<path fill="none" stroke="#56d8d0" stroke-width="2" stroke-dasharray="5,2" d="M1269.5,-644C1269.5,-644 1216.5,-644 1216.5,-644 1210.5,-644 1204.5,-638 1204.5,-632 1204.5,-632 1204.5,-620 1204.5,-620 1204.5,-614 1210.5,-608 1216.5,-608 1216.5,-608 1269.5,-608 1269.5,-608 1275.5,-608 1281.5,-614 1281.5,-620 1281.5,-620 1281.5,-632 1281.5,-632 1281.5,-638 1275.5,-644 1269.5,-644"/>
<text text-anchor="middle" x="1243" y="-623.5" font-family="sans" font-size="10.00">blobtools_plot</text>
</g>
<!-- 37&#45;&gt;41 -->
<g id="edge87" class="edge">
<title>37&#45;&gt;41</title>
<path fill="none" stroke="grey" stroke-width="2" d="M1243,-679.7C1243,-671.98 1243,-662.71 1243,-654.11"/>
<polygon fill="grey" stroke="grey" stroke-width="2" points="1246.5,-654.1 1243,-644.1 1239.5,-654.1 1246.5,-654.1"/>
</g>
<!-- 38&#45;&gt;0 -->
<g id="edge38" class="edge">
<title>38&#45;&gt;0</title>
<path fill="none" stroke="grey" stroke-width="2" d="M892.46,-679.59C896.67,-650.03 905.61,-588.18 914,-536 928.11,-448.28 948,-427.85 948,-339 948,-339 948,-339 948,-185 948,-132.68 941.83,-106.68 981,-72 1022.86,-34.94 1191.16,-23.54 1266.82,-20.25"/>
<polygon fill="grey" stroke="grey" stroke-width="2" points="1267.02,-23.74 1276.86,-19.84 1266.73,-16.75 1267.02,-23.74"/>
</g>
<!-- 40 -->
<g id="node41" class="node">
<title>40</title>
<path fill="none" stroke="#d6d856" stroke-width="2" stroke-dasharray="5,2" d="M1025.5,-644C1025.5,-644 968.5,-644 968.5,-644 962.5,-644 956.5,-638 956.5,-632 956.5,-632 956.5,-620 956.5,-620 956.5,-614 962.5,-608 968.5,-608 968.5,-608 1025.5,-608 1025.5,-608 1031.5,-608 1037.5,-614 1037.5,-620 1037.5,-620 1037.5,-632 1037.5,-632 1037.5,-638 1031.5,-644 1025.5,-644"/>
<text text-anchor="middle" x="997" y="-623.5" font-family="sans" font-size="10.00">blobtools_view</text>
</g>
<!-- 38&#45;&gt;40 -->
<g id="edge86" class="edge">
<title>38&#45;&gt;40</title>
<path fill="none" stroke="grey" stroke-width="2" d="M916.18,-679.88C930.04,-670.81 947.24,-659.55 962.21,-649.76"/>
<polygon fill="grey" stroke="grey" stroke-width="2" points="964.27,-652.59 970.72,-644.19 960.44,-646.74 964.27,-652.59"/>
</g>
<!-- 42 -->
<g id="node43" class="node">
<title>42</title>
<path fill="none" stroke="#56d8d0" stroke-width="2" stroke-dasharray="5,2" d="M907.5,-428C907.5,-428 854.5,-428 854.5,-428 848.5,-428 842.5,-422 842.5,-416 842.5,-416 842.5,-404 842.5,-404 842.5,-398 848.5,-392 854.5,-392 854.5,-392 907.5,-392 907.5,-392 913.5,-392 919.5,-398 919.5,-404 919.5,-404 919.5,-416 919.5,-416 919.5,-422 913.5,-428 907.5,-428"/>
<text text-anchor="middle" x="881" y="-407.5" font-family="sans" font-size="10.00">blobtools_plot</text>
</g>
<!-- 38&#45;&gt;42 -->
<g id="edge88" class="edge">
<title>38&#45;&gt;42</title>
<path fill="none" stroke="grey" stroke-width="2" d="M884.18,-679.56C881.07,-669.33 877.57,-656.08 876,-644 866.39,-570.02 873.22,-481.74 877.79,-438.14"/>
<polygon fill="grey" stroke="grey" stroke-width="2" points="881.28,-438.37 878.89,-428.05 874.33,-437.61 881.28,-438.37"/>
</g>
<!-- 39&#45;&gt;0 -->
<g id="edge39" class="edge">
<title>39&#45;&gt;0</title>
<path fill="none" stroke="grey" stroke-width="2" d="M1312.49,-607.86C1300.22,-598.75 1286.81,-586.44 1279,-572 1229.26,-480.07 1247,-443.53 1247,-339 1247,-339 1247,-339 1247,-185 1247,-133.36 1271.98,-77.35 1288.87,-45.38"/>
<polygon fill="grey" stroke="grey" stroke-width="2" points="1292.12,-46.72 1293.81,-36.26 1285.97,-43.38 1292.12,-46.72"/>
</g>
<!-- 52 -->
<g id="node53" class="node">
<title>52</title>
<path fill="none" stroke="#8fd856" stroke-width="2" stroke-dasharray="5,2" d="M1392,-572C1392,-572 1300,-572 1300,-572 1294,-572 1288,-566 1288,-560 1288,-560 1288,-548 1288,-548 1288,-542 1294,-536 1300,-536 1300,-536 1392,-536 1392,-536 1398,-536 1404,-542 1404,-548 1404,-548 1404,-560 1404,-560 1404,-566 1398,-572 1392,-572"/>
<text text-anchor="middle" x="1346" y="-551.5" font-family="sans" font-size="10.00">listing_contam_contigs</text>
</g>
<!-- 39&#45;&gt;52 -->
<g id="edge99" class="edge">
<title>39&#45;&gt;52</title>
<path fill="none" stroke="grey" stroke-width="2" d="M1341.48,-607.7C1342.14,-599.98 1342.94,-590.71 1343.68,-582.11"/>
<polygon fill="grey" stroke="grey" stroke-width="2" points="1347.17,-582.37 1344.53,-572.1 1340.19,-581.77 1347.17,-582.37"/>
</g>
<!-- 40&#45;&gt;0 -->
<g id="edge40" class="edge">
<title>40&#45;&gt;0</title>
<path fill="none" stroke="grey" stroke-width="2" d="M994.23,-607.87C992.69,-597.51 990.89,-584.03 990,-572 982.32,-468.71 986,-442.57 986,-339 986,-339 986,-339 986,-185 986,-133.66 973.14,-107.74 1010,-72 1046.04,-37.06 1195.66,-24.66 1266.5,-20.68"/>
<polygon fill="grey" stroke="grey" stroke-width="2" points="1266.96,-24.17 1276.76,-20.14 1266.59,-17.18 1266.96,-24.17"/>
</g>
<!-- 53 -->
<g id="node54" class="node">
<title>53</title>
<path fill="none" stroke="#8fd856" stroke-width="2" stroke-dasharray="5,2" d="M1136,-572C1136,-572 1044,-572 1044,-572 1038,-572 1032,-566 1032,-560 1032,-560 1032,-548 1032,-548 1032,-542 1038,-536 1044,-536 1044,-536 1136,-536 1136,-536 1142,-536 1148,-542 1148,-548 1148,-548 1148,-560 1148,-560 1148,-566 1142,-572 1136,-572"/>
<text text-anchor="middle" x="1090" y="-551.5" font-family="sans" font-size="10.00">listing_contam_contigs</text>
</g>
<!-- 40&#45;&gt;53 -->
<g id="edge100" class="edge">
<title>40&#45;&gt;53</title>
<path fill="none" stroke="grey" stroke-width="2" d="M1019.99,-607.7C1031.81,-598.8 1046.39,-587.82 1059.18,-578.2"/>
<polygon fill="grey" stroke="grey" stroke-width="2" points="1061.39,-580.91 1067.28,-572.1 1057.18,-575.32 1061.39,-580.91"/>
</g>
<!-- 41&#45;&gt;0 -->
<g id="edge41" class="edge">
<title>41&#45;&gt;0</title>
<path fill="none" stroke="grey" stroke-width="2" d="M1239.55,-608C1230.91,-563.83 1209,-441.75 1209,-339 1209,-339 1209,-339 1209,-185 1209,-131.1 1223.97,-117.41 1253,-72 1259.6,-61.68 1268.41,-51.66 1276.85,-43.15"/>
<polygon fill="grey" stroke="grey" stroke-width="2" points="1279.37,-45.58 1284.11,-36.1 1274.5,-40.56 1279.37,-45.58"/>
</g>
<!-- 42&#45;&gt;0 -->
<g id="edge42" class="edge">
<title>42&#45;&gt;0</title>
<path fill="none" stroke="grey" stroke-width="2" d="M883.83,-391.57C887.92,-364.84 895,-312.09 895,-267 895,-267 895,-267 895,-185 895,-131.87 893.04,-105.83 934,-72 984.26,-30.49 1183.52,-21.49 1266.95,-19.54"/>
<polygon fill="grey" stroke="grey" stroke-width="2" points="1267.08,-23.04 1277,-19.33 1266.93,-16.04 1267.08,-23.04"/>
</g>
<!-- 43 -->
<g id="node44" class="node">
<title>43</title>
<path fill="none" stroke="#d88556" stroke-width="2" stroke-dasharray="5,2" d="M1396,-500C1396,-500 1298,-500 1298,-500 1292,-500 1286,-494 1286,-488 1286,-488 1286,-476 1286,-476 1286,-470 1292,-464 1298,-464 1298,-464 1396,-464 1396,-464 1402,-464 1408,-470 1408,-476 1408,-476 1408,-488 1408,-488 1408,-494 1402,-500 1396,-500"/>
<text text-anchor="middle" x="1347" y="-479.5" font-family="sans" font-size="10.00">listing_contam_contigs2</text>
</g>
<!-- 43&#45;&gt;0 -->
<g id="edge43" class="edge">
<title>43&#45;&gt;0</title>
<path fill="none" stroke="grey" stroke-width="2" d="M1332.28,-463.85C1324.41,-453.93 1315.11,-440.89 1309,-428 1291.45,-390.98 1285,-379.97 1285,-339 1285,-339 1285,-339 1285,-185 1285,-136 1293.27,-79.4 1298.9,-46.55"/>
<polygon fill="grey" stroke="grey" stroke-width="2" points="1302.4,-46.83 1300.69,-36.37 1295.51,-45.61 1302.4,-46.83"/>
</g>
<!-- 61 -->
<g id="node62" class="node">
<title>61</title>
<path fill="none" stroke="#70d856" stroke-width="2" stroke-dasharray="5,2" d="M1508.5,-428C1508.5,-428 1401.5,-428 1401.5,-428 1395.5,-428 1389.5,-422 1389.5,-416 1389.5,-416 1389.5,-404 1389.5,-404 1389.5,-398 1395.5,-392 1401.5,-392 1401.5,-392 1508.5,-392 1508.5,-392 1514.5,-392 1520.5,-398 1520.5,-404 1520.5,-404 1520.5,-416 1520.5,-416 1520.5,-422 1514.5,-428 1508.5,-428"/>
<text text-anchor="middle" x="1455" y="-407.5" font-family="sans" font-size="10.00">removing_contam_contigs</text>
</g>
<!-- 43&#45;&gt;61 -->
<g id="edge110" class="edge">
<title>43&#45;&gt;61</title>
<path fill="none" stroke="grey" stroke-width="2" d="M1373.42,-463.88C1387.41,-454.81 1404.78,-443.55 1419.89,-433.76"/>
<polygon fill="grey" stroke="grey" stroke-width="2" points="1421.99,-436.57 1428.48,-428.19 1418.18,-430.69 1421.99,-436.57"/>
</g>
<!-- 44 -->
<g id="node45" class="node">
<title>44</title>
<path fill="none" stroke="#d88556" stroke-width="2" stroke-dasharray="5,2" d="M1180,-500C1180,-500 1082,-500 1082,-500 1076,-500 1070,-494 1070,-488 1070,-488 1070,-476 1070,-476 1070,-470 1076,-464 1082,-464 1082,-464 1180,-464 1180,-464 1186,-464 1192,-470 1192,-476 1192,-476 1192,-488 1192,-488 1192,-494 1186,-500 1180,-500"/>
<text text-anchor="middle" x="1131" y="-479.5" font-family="sans" font-size="10.00">listing_contam_contigs2</text>
</g>
<!-- 44&#45;&gt;0 -->
<g id="edge44" class="edge">
<title>44&#45;&gt;0</title>
<path fill="none" stroke="grey" stroke-width="2" d="M1135.86,-463.67C1142.87,-437.08 1155,-384.5 1155,-339 1155,-339 1155,-339 1155,-185 1155,-131.72 1159.5,-111.73 1195,-72 1214.01,-50.72 1243.48,-37.11 1266.98,-29.02"/>
<polygon fill="grey" stroke="grey" stroke-width="2" points="1268.21,-32.3 1276.64,-25.88 1266.04,-25.64 1268.21,-32.3"/>
</g>
<!-- 62 -->
<g id="node63" class="node">
<title>62</title>
<path fill="none" stroke="#70d856" stroke-width="2" stroke-dasharray="5,2" d="M1657.5,-428C1657.5,-428 1550.5,-428 1550.5,-428 1544.5,-428 1538.5,-422 1538.5,-416 1538.5,-416 1538.5,-404 1538.5,-404 1538.5,-398 1544.5,-392 1550.5,-392 1550.5,-392 1657.5,-392 1657.5,-392 1663.5,-392 1669.5,-398 1669.5,-404 1669.5,-404 1669.5,-416 1669.5,-416 1669.5,-422 1663.5,-428 1657.5,-428"/>
<text text-anchor="middle" x="1604" y="-407.5" font-family="sans" font-size="10.00">removing_contam_contigs</text>
</g>
<!-- 44&#45;&gt;62 -->
<g id="edge112" class="edge">
<title>44&#45;&gt;62</title>
<path fill="none" stroke="grey" stroke-width="2" d="M1192.37,-473.52C1283.32,-462.32 1450.62,-441.26 1528.31,-428"/>
<polygon fill="grey" stroke="grey" stroke-width="2" points="1528.97,-431.44 1538.22,-426.26 1527.76,-424.54 1528.97,-431.44"/>
</g>
<!-- 45 -->
<g id="node46" class="node">
<title>45</title>
<path fill="none" stroke="#d8cb56" stroke-width="2" stroke-dasharray="5,2" d="M1410.5,-116C1410.5,-116 1373.5,-116 1373.5,-116 1367.5,-116 1361.5,-110 1361.5,-104 1361.5,-104 1361.5,-92 1361.5,-92 1361.5,-86 1367.5,-80 1373.5,-80 1373.5,-80 1410.5,-80 1410.5,-80 1416.5,-80 1422.5,-86 1422.5,-92 1422.5,-92 1422.5,-104 1422.5,-104 1422.5,-110 1416.5,-116 1410.5,-116"/>
<text text-anchor="middle" x="1392" y="-95.5" font-family="sans" font-size="10.00">zipping_fq</text>
</g>
<!-- 45&#45;&gt;0 -->
<g id="edge45" class="edge">
<title>45&#45;&gt;0</title>
<path fill="none" stroke="grey" stroke-width="2" d="M1372.47,-79.69C1360.28,-68.88 1344.41,-54.82 1331.03,-42.95"/>
<polygon fill="grey" stroke="grey" stroke-width="2" points="1333.28,-40.28 1323.48,-36.26 1328.64,-45.51 1333.28,-40.28"/>
</g>
<!-- 46 -->
<g id="node47" class="node">
<title>46</title>
<path fill="none" stroke="#d8cb56" stroke-width="2" stroke-dasharray="5,2" d="M1505.5,-116C1505.5,-116 1468.5,-116 1468.5,-116 1462.5,-116 1456.5,-110 1456.5,-104 1456.5,-104 1456.5,-92 1456.5,-92 1456.5,-86 1462.5,-80 1468.5,-80 1468.5,-80 1505.5,-80 1505.5,-80 1511.5,-80 1517.5,-86 1517.5,-92 1517.5,-92 1517.5,-104 1517.5,-104 1517.5,-110 1511.5,-116 1505.5,-116"/>
<text text-anchor="middle" x="1487" y="-95.5" font-family="sans" font-size="10.00">zipping_fq</text>
</g>
<!-- 46&#45;&gt;0 -->
<g id="edge46" class="edge">
<title>46&#45;&gt;0</title>
<path fill="none" stroke="grey" stroke-width="2" d="M1456.25,-83.11C1448.06,-79.46 1439.21,-75.55 1431,-72 1400.66,-58.9 1366.03,-44.48 1340.6,-34"/>
<polygon fill="grey" stroke="grey" stroke-width="2" points="1341.91,-30.75 1331.33,-30.18 1339.25,-37.22 1341.91,-30.75"/>
</g>
<!-- 47 -->
<g id="node48" class="node">
<title>47</title>
<path fill="none" stroke="#56d882" stroke-width="2" stroke-dasharray="5,2" d="M2740.5,-356C2740.5,-356 2699.5,-356 2699.5,-356 2693.5,-356 2687.5,-350 2687.5,-344 2687.5,-344 2687.5,-332 2687.5,-332 2687.5,-326 2693.5,-320 2699.5,-320 2699.5,-320 2740.5,-320 2740.5,-320 2746.5,-320 2752.5,-326 2752.5,-332 2752.5,-332 2752.5,-344 2752.5,-344 2752.5,-350 2746.5,-356 2740.5,-356"/>
<text text-anchor="middle" x="2720" y="-335.5" font-family="sans" font-size="10.00">kmc_count</text>
</g>
<!-- 47&#45;&gt;27 -->
<g id="edge63" class="edge">
<title>47&#45;&gt;27</title>
<path fill="none" stroke="grey" stroke-width="2" d="M2720,-319.7C2720,-311.98 2720,-302.71 2720,-294.11"/>
<polygon fill="grey" stroke="grey" stroke-width="2" points="2723.5,-294.1 2720,-284.1 2716.5,-294.1 2723.5,-294.1"/>
</g>
<!-- 48&#45;&gt;28 -->
<g id="edge64" class="edge">
<title>48&#45;&gt;28</title>
<path fill="none" stroke="grey" stroke-width="2" d="M2771.35,-167.6C2768.14,-155.63 2763.83,-139.5 2760.19,-125.89"/>
<polygon fill="grey" stroke="grey" stroke-width="2" points="2763.53,-124.84 2757.57,-116.08 2756.77,-126.65 2763.53,-124.84"/>
</g>
<!-- 49&#45;&gt;29 -->
<g id="edge67" class="edge">
<title>49&#45;&gt;29</title>
<path fill="none" stroke="grey" stroke-width="2" d="M1243,-1063.6C1243,-1051.75 1243,-1035.82 1243,-1022.29"/>
<polygon fill="grey" stroke="grey" stroke-width="2" points="1246.5,-1022.08 1243,-1012.08 1239.5,-1022.08 1246.5,-1022.08"/>
</g>
<!-- 50&#45;&gt;33 -->
<g id="edge75" class="edge">
<title>50&#45;&gt;33</title>
<path fill="none" stroke="grey" stroke-width="2" d="M1243,-823.7C1243,-815.98 1243,-806.71 1243,-798.11"/>
<polygon fill="grey" stroke="grey" stroke-width="2" points="1246.5,-798.1 1243,-788.1 1239.5,-798.1 1246.5,-798.1"/>
</g>
<!-- 51&#45;&gt;34 -->
<g id="edge76" class="edge">
<title>51&#45;&gt;34</title>
<path fill="none" stroke="grey" stroke-width="2" d="M1983.51,-823.7C1983.29,-815.98 1983.02,-806.71 1982.77,-798.11"/>
<polygon fill="grey" stroke="grey" stroke-width="2" points="1986.27,-798 1982.49,-788.1 1979.28,-798.2 1986.27,-798"/>
</g>
<!-- 52&#45;&gt;43 -->
<g id="edge89" class="edge">
<title>52&#45;&gt;43</title>
<path fill="none" stroke="grey" stroke-width="2" d="M1346.25,-535.7C1346.36,-527.98 1346.49,-518.71 1346.61,-510.11"/>
<polygon fill="grey" stroke="grey" stroke-width="2" points="1350.11,-510.15 1346.76,-500.1 1343.11,-510.05 1350.11,-510.15"/>
</g>
<!-- 53&#45;&gt;44 -->
<g id="edge90" class="edge">
<title>53&#45;&gt;44</title>
<path fill="none" stroke="grey" stroke-width="2" d="M1100.13,-535.7C1104.85,-527.64 1110.56,-517.89 1115.78,-508.98"/>
<polygon fill="grey" stroke="grey" stroke-width="2" points="1118.95,-510.5 1120.98,-500.1 1112.91,-506.96 1118.95,-510.5"/>
</g>
<!-- 54 -->
<g id="node55" class="node">
<title>54</title>
<path fill="none" stroke="#569ad8" stroke-width="2" stroke-dasharray="5,2" d="M1409,-204C1409,-204 1379,-204 1379,-204 1373,-204 1367,-198 1367,-192 1367,-192 1367,-180 1367,-180 1367,-174 1373,-168 1379,-168 1379,-168 1409,-168 1409,-168 1415,-168 1421,-174 1421,-180 1421,-180 1421,-192 1421,-192 1421,-198 1415,-204 1409,-204"/>
<text text-anchor="middle" x="1394" y="-183.5" font-family="sans" font-size="10.00">bam2fq</text>
</g>
<!-- 54&#45;&gt;45 -->
<g id="edge91" class="edge">
<title>54&#45;&gt;45</title>
<path fill="none" stroke="grey" stroke-width="2" d="M1393.6,-167.6C1393.32,-155.75 1392.95,-139.82 1392.63,-126.29"/>
<polygon fill="grey" stroke="grey" stroke-width="2" points="1396.13,-126 1392.4,-116.08 1389.13,-126.16 1396.13,-126"/>
</g>
<!-- 55 -->
<g id="node56" class="node">
<title>55</title>
<path fill="none" stroke="#569ad8" stroke-width="2" stroke-dasharray="5,2" d="M1518,-204C1518,-204 1488,-204 1488,-204 1482,-204 1476,-198 1476,-192 1476,-192 1476,-180 1476,-180 1476,-174 1482,-168 1488,-168 1488,-168 1518,-168 1518,-168 1524,-168 1530,-174 1530,-180 1530,-180 1530,-192 1530,-192 1530,-198 1524,-204 1518,-204"/>
<text text-anchor="middle" x="1503" y="-183.5" font-family="sans" font-size="10.00">bam2fq</text>
</g>
<!-- 55&#45;&gt;46 -->
<g id="edge92" class="edge">
<title>55&#45;&gt;46</title>
<path fill="none" stroke="grey" stroke-width="2" d="M1499.76,-167.6C1497.56,-155.75 1494.59,-139.82 1492.08,-126.29"/>
<polygon fill="grey" stroke="grey" stroke-width="2" points="1495.45,-125.28 1490.18,-116.08 1488.57,-126.56 1495.45,-125.28"/>
</g>
<!-- 56 -->
<g id="node57" class="node">
<title>56</title>
<path fill="none" stroke="#5663d8" stroke-width="2" stroke-dasharray="5,2" d="M2754.5,-428C2754.5,-428 2685.5,-428 2685.5,-428 2679.5,-428 2673.5,-422 2673.5,-416 2673.5,-416 2673.5,-404 2673.5,-404 2673.5,-398 2679.5,-392 2685.5,-392 2685.5,-392 2754.5,-392 2754.5,-392 2760.5,-392 2766.5,-398 2766.5,-404 2766.5,-404 2766.5,-416 2766.5,-416 2766.5,-422 2760.5,-428 2754.5,-428"/>
<text text-anchor="middle" x="2720" y="-407.5" font-family="sans" font-size="10.00">create_kmcfilelist</text>
</g>
<!-- 56&#45;&gt;47 -->
<g id="edge93" class="edge">
<title>56&#45;&gt;47</title>
<path fill="none" stroke="grey" stroke-width="2" d="M2720,-391.7C2720,-383.98 2720,-374.71 2720,-366.11"/>
<polygon fill="grey" stroke="grey" stroke-width="2" points="2723.5,-366.1 2720,-356.1 2716.5,-366.1 2723.5,-366.1"/>
</g>
<!-- 57 -->
<g id="node58" class="node">
<title>57</title>
<path fill="none" stroke="#56a9d8" stroke-width="2" stroke-dasharray="5,2" d="M1425.5,-284C1425.5,-284 1370.5,-284 1370.5,-284 1364.5,-284 1358.5,-278 1358.5,-272 1358.5,-272 1358.5,-260 1358.5,-260 1358.5,-254 1364.5,-248 1370.5,-248 1370.5,-248 1425.5,-248 1425.5,-248 1431.5,-248 1437.5,-254 1437.5,-260 1437.5,-260 1437.5,-272 1437.5,-272 1437.5,-278 1431.5,-284 1425.5,-284"/>
<text text-anchor="middle" x="1398" y="-263.5" font-family="sans" font-size="10.00">transformation</text>
</g>
<!-- 57&#45;&gt;54 -->
<g id="edge101" class="edge">
<title>57&#45;&gt;54</title>
<path fill="none" stroke="grey" stroke-width="2" d="M1397.11,-247.69C1396.61,-237.89 1395.97,-225.42 1395.4,-214.33"/>
<polygon fill="grey" stroke="grey" stroke-width="2" points="1398.89,-214.07 1394.89,-204.26 1391.9,-214.43 1398.89,-214.07"/>
</g>
<!-- 58 -->
<g id="node59" class="node">
<title>58</title>
<path fill="none" stroke="#56a9d8" stroke-width="2" stroke-dasharray="5,2" d="M1599.5,-284C1599.5,-284 1544.5,-284 1544.5,-284 1538.5,-284 1532.5,-278 1532.5,-272 1532.5,-272 1532.5,-260 1532.5,-260 1532.5,-254 1538.5,-248 1544.5,-248 1544.5,-248 1599.5,-248 1599.5,-248 1605.5,-248 1611.5,-254 1611.5,-260 1611.5,-260 1611.5,-272 1611.5,-272 1611.5,-278 1605.5,-284 1599.5,-284"/>
<text text-anchor="middle" x="1572" y="-263.5" font-family="sans" font-size="10.00">transformation</text>
</g>
<!-- 58&#45;&gt;55 -->
<g id="edge102" class="edge">
<title>58&#45;&gt;55</title>
<path fill="none" stroke="grey" stroke-width="2" d="M1556.69,-247.69C1547.4,-237.19 1535.38,-223.61 1525.08,-211.96"/>
<polygon fill="grey" stroke="grey" stroke-width="2" points="1527.52,-209.43 1518.27,-204.26 1522.27,-214.07 1527.52,-209.43"/>
</g>
<!-- 59&#45;&gt;57 -->
<g id="edge103" class="edge">
<title>59&#45;&gt;57</title>
<path fill="none" stroke="grey" stroke-width="2" d="M1404.02,-319.7C1403.14,-311.98 1402.08,-302.71 1401.1,-294.11"/>
<polygon fill="grey" stroke="grey" stroke-width="2" points="1404.57,-293.64 1399.95,-284.1 1397.61,-294.44 1404.57,-293.64"/>
</g>
<!-- 60&#45;&gt;58 -->
<g id="edge104" class="edge">
<title>60&#45;&gt;58</title>
<path fill="none" stroke="grey" stroke-width="2" d="M1596.09,-319.7C1592.45,-311.73 1588.05,-302.1 1584.01,-293.26"/>
<polygon fill="grey" stroke="grey" stroke-width="2" points="1587.16,-291.74 1579.82,-284.1 1580.79,-294.65 1587.16,-291.74"/>
</g>
<!-- 61&#45;&gt;59 -->
<g id="edge105" class="edge">
<title>61&#45;&gt;59</title>
<path fill="none" stroke="grey" stroke-width="2" d="M1442.89,-391.7C1437.13,-383.47 1430.14,-373.48 1423.79,-364.42"/>
<polygon fill="grey" stroke="grey" stroke-width="2" points="1426.58,-362.29 1417.97,-356.1 1420.84,-366.3 1426.58,-362.29"/>
</g>
<!-- 62&#45;&gt;60 -->
<g id="edge107" class="edge">
<title>62&#45;&gt;60</title>
<path fill="none" stroke="grey" stroke-width="2" d="M1604,-391.7C1604,-383.98 1604,-374.71 1604,-366.11"/>
<polygon fill="grey" stroke="grey" stroke-width="2" points="1607.5,-366.1 1604,-356.1 1600.5,-366.1 1607.5,-366.1"/>
</g>
<!-- 63&#45;&gt;61 -->
<g id="edge109" class="edge">
<title>63&#45;&gt;61</title>
<path fill="none" stroke="grey" stroke-width="2" d="M1578.88,-463.88C1556.36,-454.26 1528.08,-442.19 1504.23,-432.01"/>
<polygon fill="grey" stroke="grey" stroke-width="2" points="1505.56,-428.77 1494.99,-428.07 1502.81,-435.21 1505.56,-428.77"/>
</g>
<!-- 63&#45;&gt;62 -->
<g id="edge111" class="edge">
<title>63&#45;&gt;62</title>
<path fill="none" stroke="grey" stroke-width="2" d="M1615.29,-463.7C1613.64,-455.98 1611.65,-446.71 1609.81,-438.11"/>
<polygon fill="grey" stroke="grey" stroke-width="2" points="1613.18,-437.15 1607.67,-428.1 1606.34,-438.62 1613.18,-437.15"/>
</g>
</g>
</svg>
